<svg version="1.1" xmlns="http://www.w3.org/2000/svg" xmlns:xlink="http://www.w3.org/1999/xlink" stroke-linecap="round" stroke-linejoin="round" stroke-width="0" fill-rule="evenodd" clip-rule="evenodd" id="MsLDIIUkvrVw_bottom" viewBox="147320 -127000 50800 76200" width="50.8mm" height="76.2mm"><defs><style>.MsLDIIUkvrVw_fr4 {color: #666666;}
.MsLDIIUkvrVw_cu {color: #cccccc;}
.MsLDIIUkvrVw_cf {color: #cc9933;}
.MsLDIIUkvrVw_sm {color: #ff0000; opacity: 0.75;}
.MsLDIIUkvrVw_ss {color: #ffffff;}
.MsLDIIUkvrVw_sp {color: #999999;}
.MsLDIIUkvrVw_out {color: #000000;}</style><circle cx="0" cy="0" r="2000" id="iCVK8F76Ta0M_pad-10"/><circle cx="0" cy="0" r="650" id="iCVK8F76Ta0M_pad-11"/><rect x="-650" y="-650" width="1300" height="1300" id="iCVK8F76Ta0M_pad-12"/><circle cx="0" cy="0" r="800" id="iCVK8F76Ta0M_pad-13"/><rect x="-800" y="-800" width="1600" height="1600" id="iCVK8F76Ta0M_pad-14"/><rect x="-870" y="-1095" width="1740" height="2190" rx="870" ry="870" id="iCVK8F76Ta0M_pad-15"/><circle cx="0" cy="0" r="1200" id="iCVK8F76Ta0M_pad-16"/><circle cx="0" cy="0" r="400" id="iCVK8F76Ta0M_pad-17"/><circle cx="0" cy="0" r="2000" id="xbhMIffEoF9x_pad-10"/><circle cx="0" cy="0" r="1600" id="xbhMIffEoF9x_pad-11"/><circle cx="0" cy="0" r="650" id="xbhMIffEoF9x_pad-12"/><rect x="-650" y="-650" width="1300" height="1300" id="xbhMIffEoF9x_pad-13"/><circle cx="0" cy="0" r="800" id="xbhMIffEoF9x_pad-14"/><rect x="-800" y="-800" width="1600" height="1600" id="xbhMIffEoF9x_pad-15"/><rect x="-870" y="-1095" width="1740" height="2190" rx="870" ry="870" id="xbhMIffEoF9x_pad-16"/><circle cx="0" cy="0" r="1200" id="xbhMIffEoF9x_pad-17"/><circle cx="0" cy="0" r="63" id="na5OINCTjYDG_pad-1"/><circle cx="0" cy="0" r="7.85" id="F0jviFCZ1X6t_pad-1"/><circle cx="0" cy="0" r="13.8" id="F0jviFCZ1X6t_pad-2"/><circle cx="0" cy="0" r="15.75" id="F0jviFCZ1X6t_pad-3"/><circle cx="0" cy="0" r="23.45" id="F0jviFCZ1X6t_pad-4"/><circle cx="0" cy="0" r="23.6" id="F0jviFCZ1X6t_pad-5"/><circle cx="0" cy="0" r="39.35" id="F0jviFCZ1X6t_pad-6"/><g id="MsLDIIUkvrVw_bottom_copper"><use xlink:href="#iCVK8F76Ta0M_pad-10" x="193548" y="-64516"/><use xlink:href="#iCVK8F76Ta0M_pad-10" x="179913.28" y="-113538"/><use xlink:href="#iCVK8F76Ta0M_pad-10" x="189270.64" y="-97790"/><use xlink:href="#iCVK8F76Ta0M_pad-10" x="165633.4" y="-113538"/><use xlink:href="#iCVK8F76Ta0M_pad-10" x="155966.16" y="-97790"/><use xlink:href="#iCVK8F76Ta0M_pad-10" x="152146" y="-64516"/><use xlink:href="#iCVK8F76Ta0M_pad-11" x="172773.34" y="-79248"/><use xlink:href="#iCVK8F76Ta0M_pad-11" x="170233.34" y="-79248"/><use xlink:href="#iCVK8F76Ta0M_pad-12" x="175313.34" y="-79248"/><use xlink:href="#iCVK8F76Ta0M_pad-13" x="173818.228" y="-66167"/><use xlink:href="#iCVK8F76Ta0M_pad-14" x="171818.228" y="-66167"/><use xlink:href="#iCVK8F76Ta0M_pad-15" x="163042.6" y="-56420.56"/><path d="M 159632.6 -57265.561 159632.6 -55575.559 A 249.999 249.999 0 0 0 159882.599 -55325.56 L 161122.601 -55325.56 A 249.999 249.999 0 0 0 161372.6 -55575.559 L 161372.6 -57265.561 A 249.999 249.999 0 0 0 161122.601 -57515.56 L 159882.599 -57515.56 A 249.999 249.999 0 0 0 159632.6 -57265.561"/><use xlink:href="#iCVK8F76Ta0M_pad-15" x="170362.88" y="-56420.56"/><path d="M 166952.88 -57265.561 166952.88 -55575.559 A 249.999 249.999 0 0 0 167202.879 -55325.56 L 168442.881 -55325.56 A 249.999 249.999 0 0 0 168692.88 -55575.559 L 168692.88 -57265.561 A 249.999 249.999 0 0 0 168442.881 -57515.56 L 167202.879 -57515.56 A 249.999 249.999 0 0 0 166952.88 -57265.561"/><use xlink:href="#iCVK8F76Ta0M_pad-15" x="177683.16" y="-56420.56"/><path d="M 174273.16 -57265.561 174273.16 -55575.559 A 249.999 249.999 0 0 0 174523.159 -55325.56 L 175763.161 -55325.56 A 249.999 249.999 0 0 0 176013.16 -55575.559 L 176013.16 -57265.561 A 249.999 249.999 0 0 0 175763.161 -57515.56 L 174523.159 -57515.56 A 249.999 249.999 0 0 0 174273.16 -57265.561"/><use xlink:href="#iCVK8F76Ta0M_pad-16" x="187770.64" y="-108717.08"/><use xlink:href="#iCVK8F76Ta0M_pad-16" x="190770.64" y="-108717.08"/><use xlink:href="#iCVK8F76Ta0M_pad-16" x="157466.16" y="-108717.08"/><use xlink:href="#iCVK8F76Ta0M_pad-16" x="154466.16" y="-108717.08"/><use xlink:href="#iCVK8F76Ta0M_pad-15" x="185003.44" y="-56420.56"/><path d="M 181593.44 -57265.561 181593.44 -55575.559 A 249.999 249.999 0 0 0 181843.439 -55325.56 L 183083.441 -55325.56 A 249.999 249.999 0 0 0 183333.44 -55575.559 L 183333.44 -57265.561 A 249.999 249.999 0 0 0 183083.441 -57515.56 L 181843.439 -57515.56 A 249.999 249.999 0 0 0 181593.44 -57265.561"/><use xlink:href="#iCVK8F76Ta0M_pad-17" x="164070.9" y="-92192.966"/><use xlink:href="#iCVK8F76Ta0M_pad-17" x="164083.4" y="-86741"/><use xlink:href="#iCVK8F76Ta0M_pad-17" x="164070.9" y="-103149.4"/><use xlink:href="#iCVK8F76Ta0M_pad-17" x="167132" y="-92202"/><use xlink:href="#iCVK8F76Ta0M_pad-17" x="158298" y="-87230"/><use xlink:href="#iCVK8F76Ta0M_pad-17" x="157226" y="-78740"/><use xlink:href="#iCVK8F76Ta0M_pad-17" x="158298" y="-69654"/><use xlink:href="#iCVK8F76Ta0M_pad-17" x="191262" y="-78994"/><use xlink:href="#iCVK8F76Ta0M_pad-17" x="192213" y="-69654"/><use xlink:href="#iCVK8F76Ta0M_pad-17" x="181475.78" y="-103149.4"/><use xlink:href="#iCVK8F76Ta0M_pad-17" x="181463.28" y="-86741"/><use xlink:href="#iCVK8F76Ta0M_pad-17" x="178363.28" y="-86741"/><path d="M 152146 -82336.002 152146 -64516 M 162002.964 -92192.966 152146 -82336.002 M 164070.9 -92192.966 162002.964 -92192.966 M 163042.6 -56420.56 163042.6 -85700.2 164083.4 -86741 M 165633.4 -104711.9 164070.9 -103149.4 M 165633.4 -113538 165633.4 -104711.9 M 162160 -87230 158298 -87230 M 167132 -92202 162160 -87230 M 158298 -77668 158298 -69654 M 157226 -78740 158298 -77668 M 192213 -78043 192213 -69654 M 191262 -78994 192213 -78043" fill="none" stroke-width="500"/><path d="M 171818.228 -66387.002 171818.228 -66167 M 173098.227 -67667.001 171818.228 -66387.002 M 190396.999 -67667.001 173098.227 -67667.001 M 193548 -64516 190396.999 -67667.001" fill="none" stroke-width="1000"/><path d="M 179913.28 -104711.9 181475.78 -103149.4 M 179913.28 -113538 179913.28 -104711.9 M 177955.279 -87591.001 180613.279 -87591.001 181463.28 -86741 M 177513.279 -87149.001 177955.279 -87591.001 M 177513.279 -75262.016 177513.279 -87149.001 M 169868.217 -67616.954 177513.279 -75262.016 M 169868.217 -56915.223 169868.217 -67616.954 M 170362.88 -56420.56 169868.217 -56915.223 M 178363.28 -75122.054 178363.28 -86741 M 170568.227 -67327.001 178363.28 -75122.054 M 170568.227 -63535.493 170568.227 -67327.001 M 177683.16 -56420.56 170568.227 -63535.493" fill="none" stroke-width="500"/><path d="M 196967.869 -51474.722 197081.246 -51508.953 197185.819 -51564.555 197277.596 -51639.407 197353.091 -51730.664 197409.419 -51834.844 197444.44 -51947.976 197460.001 -52096.031 197460 -125697.721 197445.278 -125847.869 197411.047 -125961.246 197355.446 -126065.817 197280.594 -126157.595 197189.335 -126233.091 197085.16 -126289.419 196972.024 -126324.44 196823.979 -126340 148622.279 -126340 148472.131 -126325.278 148358.754 -126291.047 148254.183 -126235.446 148162.405 -126160.594 148086.909 -126069.335 148030.581 -125965.16 147995.56 -125852.024 147980 -125703.979 147980 -122969.872 148895 -122969.872 148895 -123410.128 148980.89 -123841.925 149149.369 -124248.669 149393.962 -124614.729 149705.271 -124926.038 150071.331 -125170.631 150478.075 -125339.11 150909.872 -125425 151350.128 -125425 151781.925 -125339.11 152188.669 -125170.631 152554.729 -124926.038 152866.038 -124614.729 153110.631 -124248.669 153279.11 -123841.925 153365 -123410.128 153365 -122969.872 192075 -122969.872 192075 -123410.128 192160.89 -123841.925 192329.369 -124248.669 192573.962 -124614.729 192885.271 -124926.038 193251.331 -125170.631 193658.075 -125339.11 194089.872 -125425 194530.128 -125425 194961.925 -125339.11 195368.669 -125170.631 195734.729 -124926.038 196046.038 -124614.729 196290.631 -124248.669 196459.11 -123841.925 196545 -123410.128 196545 -122969.872 196459.11 -122538.075 196290.631 -122131.331 196046.038 -121765.271 195734.729 -121453.962 195368.669 -121209.369 194961.925 -121040.89 194530.128 -120955 194089.872 -120955 193658.075 -121040.89 193251.331 -121209.369 192885.271 -121453.962 192573.962 -121765.271 192329.369 -122131.331 192160.89 -122538.075 192075 -122969.872 153365 -122969.872 153279.11 -122538.075 153110.631 -122131.331 152866.038 -121765.271 152554.729 -121453.962 152188.669 -121209.369 151781.925 -121040.89 151350.128 -120955 150909.872 -120955 150478.075 -121040.89 150071.331 -121209.369 149705.271 -121453.962 149393.962 -121765.271 149149.369 -122131.331 148980.89 -122538.075 148895 -122969.872 147980 -122969.872 147980 -113278.475 162998.4 -113278.475 162998.4 -113797.525 163099.661 -114306.601 163298.293 -114786.141 163586.662 -115217.715 163953.685 -115584.738 164385.259 -115873.107 164864.799 -116071.739 165373.875 -116173 165892.925 -116173 166402.001 -116071.739 166881.541 -115873.107 167313.115 -115584.738 167680.138 -115217.715 167968.507 -114786.141 168167.139 -114306.601 168268.4 -113797.525 168268.4 -113278.475 177278.28 -113278.475 177278.28 -113797.525 177379.541 -114306.601 177578.173 -114786.141 177866.542 -115217.715 178233.565 -115584.738 178665.139 -115873.107 179144.679 -116071.739 179653.755 -116173 180172.805 -116173 180681.881 -116071.739 181161.421 -115873.107 181592.995 -115584.738 181960.018 -115217.715 182248.387 -114786.141 182447.019 -114306.601 182548.28 -113797.525 182548.28 -113278.475 182447.019 -112769.399 182248.387 -112289.859 181960.018 -111858.285 181592.995 -111491.262 181161.421 -111202.893 180798.28 -111052.475 180798.28 -108536.348 185935.64 -108536.348 185935.64 -108897.812 186006.158 -109252.33 186144.484 -109586.279 186345.302 -109886.824 186600.896 -110142.418 186901.441 -110343.236 187235.39 -110481.562 187589.908 -110552.08 187951.372 -110552.08 188305.89 -110481.562 188639.839 -110343.236 188940.384 -110142.418 189195.978 -109886.824 189270.64 -109775.085 189345.302 -109886.824 189600.896 -110142.418 189901.441 -110343.236 190235.39 -110481.562 190589.908 -110552.08 190951.372 -110552.08 191305.89 -110481.562 191639.839 -110343.236 191940.384 -110142.418 192195.978 -109886.824 192396.796 -109586.279 192535.122 -109252.33 192605.64 -108897.812 192605.64 -108536.348 192535.122 -108181.83 192396.796 -107847.881 192195.978 -107547.336 191940.384 -107291.742 191639.839 -107090.924 191305.89 -106952.598 190951.372 -106882.08 190589.908 -106882.08 190235.39 -106952.598 189901.441 -107090.924 189600.896 -107291.742 189345.302 -107547.336 189270.64 -107659.075 189195.978 -107547.336 188940.384 -107291.742 188639.839 -107090.924 188305.89 -106952.598 187951.372 -106882.08 187589.908 -106882.08 187235.39 -106952.598 186901.441 -107090.924 186600.896 -107291.742 186345.302 -107547.336 186144.484 -107847.881 186006.158 -108181.83 185935.64 -108536.348 180798.28 -108536.348 180798.28 -105078.478 181720.824 -104155.935 181777.678 -104144.626 181966.036 -104066.605 182135.554 -103953.337 182279.717 -103809.174 182392.985 -103639.656 182471.006 -103451.298 182510.78 -103251.339 182510.78 -103047.461 182471.006 -102847.502 182392.985 -102659.144 182279.717 -102489.626 182135.554 -102345.463 181966.036 -102232.195 181777.678 -102154.174 181577.719 -102114.4 181373.841 -102114.4 181173.882 -102154.174 180985.524 -102232.195 180816.006 -102345.463 180671.843 -102489.626 180558.575 -102659.144 180480.554 -102847.502 180469.245 -102904.356 179318.231 -104055.371 179284.464 -104083.083 179256.751 -104116.851 179256.748 -104116.854 179173.87 -104217.841 179091.692 -104371.587 179041.085 -104538.41 179023.999 -104711.9 179028.281 -104755.379 179028.28 -111052.475 178665.139 -111202.893 178233.565 -111491.262 177866.542 -111858.285 177578.173 -112289.859 177379.541 -112769.399 177278.28 -113278.475 168268.4 -113278.475 168167.139 -112769.399 167968.507 -112289.859 167680.138 -111858.285 167313.115 -111491.262 166881.541 -111202.893 166518.4 -111052.475 166518.4 -104755.369 166522.681 -104711.9 166518.4 -104668.431 166518.4 -104668.423 166505.595 -104538.41 166454.989 -104371.587 166454.989 -104371.586 166372.811 -104217.841 166289.932 -104116.853 166289.93 -104116.851 166262.217 -104083.083 166228.449 -104055.37 165077.435 -102904.357 165066.126 -102847.502 164988.105 -102659.144 164874.837 -102489.626 164730.674 -102345.463 164561.156 -102232.195 164372.798 -102154.174 164172.839 -102114.4 163968.961 -102114.4 163769.002 -102154.174 163580.644 -102232.195 163411.126 -102345.463 163266.963 -102489.626 163153.695 -102659.144 163075.674 -102847.502 163035.9 -103047.461 163035.9 -103251.339 163075.674 -103451.298 163153.695 -103639.656 163266.963 -103809.174 163411.126 -103953.337 163580.644 -104066.605 163769.002 -104144.626 163825.857 -104155.935 164748.401 -105078.48 164748.4 -111052.475 164385.259 -111202.893 163953.685 -111491.262 163586.662 -111858.285 163298.293 -112289.859 163099.661 -112769.399 162998.4 -113278.475 147980 -113278.475 147980 -108536.348 152631.16 -108536.348 152631.16 -108897.812 152701.678 -109252.33 152840.004 -109586.279 153040.822 -109886.824 153296.416 -110142.418 153596.961 -110343.236 153930.91 -110481.562 154285.428 -110552.08 154646.892 -110552.08 155001.41 -110481.562 155335.359 -110343.236 155635.904 -110142.418 155891.498 -109886.824 155966.16 -109775.085 156040.822 -109886.824 156296.416 -110142.418 156596.961 -110343.236 156930.91 -110481.562 157285.428 -110552.08 157646.892 -110552.08 158001.41 -110481.562 158335.359 -110343.236 158635.904 -110142.418 158891.498 -109886.824 159092.316 -109586.279 159230.642 -109252.33 159301.16 -108897.812 159301.16 -108536.348 159230.642 -108181.83 159092.316 -107847.881 158891.498 -107547.336 158635.904 -107291.742 158335.359 -107090.924 158001.41 -106952.598 157646.892 -106882.08 157285.428 -106882.08 156930.91 -106952.598 156596.961 -107090.924 156296.416 -107291.742 156040.822 -107547.336 155966.16 -107659.075 155891.498 -107547.336 155635.904 -107291.742 155335.359 -107090.924 155001.41 -106952.598 154646.892 -106882.08 154285.428 -106882.08 153930.91 -106952.598 153596.961 -107090.924 153296.416 -107291.742 153040.822 -107547.336 152840.004 -107847.881 152701.678 -108181.83 152631.16 -108536.348 147980 -108536.348 147980 -97530.475 153331.16 -97530.475 153331.16 -98049.525 153432.421 -98558.601 153631.053 -99038.141 153919.422 -99469.715 154286.445 -99836.738 154718.019 -100125.107 155197.559 -100323.739 155706.635 -100425 156225.685 -100425 156734.761 -100323.739 157214.301 -100125.107 157645.875 -99836.738 158012.898 -99469.715 158301.267 -99038.141 158499.899 -98558.601 158601.16 -98049.525 158601.16 -97530.475 186635.64 -97530.475 186635.64 -98049.525 186736.901 -98558.601 186935.533 -99038.141 187223.902 -99469.715 187590.925 -99836.738 188022.499 -100125.107 188502.039 -100323.739 189011.115 -100425 189530.165 -100425 190039.241 -100323.739 190518.781 -100125.107 190950.355 -99836.738 191317.378 -99469.715 191605.747 -99038.141 191804.379 -98558.601 191905.64 -98049.525 191905.64 -97530.475 191804.379 -97021.399 191605.747 -96541.859 191317.378 -96110.285 190950.355 -95743.262 190518.781 -95454.893 190039.241 -95256.261 189530.165 -95155 189011.115 -95155 188502.039 -95256.261 188022.499 -95454.893 187590.925 -95743.262 187223.902 -96110.285 186935.533 -96541.859 186736.901 -97021.399 186635.64 -97530.475 158601.16 -97530.475 158499.899 -97021.399 158301.267 -96541.859 158012.898 -96110.285 157645.875 -95743.262 157214.301 -95454.893 156734.761 -95256.261 156225.685 -95155 155706.635 -95155 155197.559 -95256.261 154718.019 -95454.893 154286.445 -95743.262 153919.422 -96110.285 153631.053 -96541.859 153432.421 -97021.399 153331.16 -97530.475 147980 -97530.475 147980 -64256.475 149511 -64256.475 149511 -64775.525 149612.261 -65284.601 149810.893 -65764.141 150099.262 -66195.715 150466.285 -66562.738 150897.859 -66851.107 151261.001 -67001.525 151261 -82292.533 151256.719 -82336.002 151261 -82379.471 151261 -82379.478 151273.805 -82509.491 151324.411 -82676.314 151406.589 -82830.06 151517.183 -82964.819 151550.956 -82992.536 161346.434 -92788.015 161374.147 -92821.783 161407.915 -92849.496 161407.917 -92849.498 161479.416 -92908.176 161508.905 -92932.377 161662.651 -93014.555 161829.474 -93065.161 161959.487 -93077.966 161959.497 -93077.966 162002.963 -93082.247 162046.429 -93077.966 163532.446 -93077.966 163580.644 -93110.171 163769.002 -93188.192 163968.961 -93227.966 164172.839 -93227.966 164372.798 -93188.192 164561.156 -93110.171 164730.674 -92996.903 164874.837 -92852.74 164988.105 -92683.222 165066.126 -92494.864 165105.9 -92294.905 165105.9 -92091.027 165066.126 -91891.068 164988.105 -91702.71 164874.837 -91533.192 164730.674 -91389.029 164561.156 -91275.761 164372.798 -91197.74 164172.839 -91157.966 163968.961 -91157.966 163769.002 -91197.74 163580.644 -91275.761 163532.446 -91307.966 162369.543 -91307.966 159176.577 -88115 161793.422 -88115 166125.465 -92447.044 166136.774 -92503.898 166214.795 -92692.256 166328.063 -92861.774 166472.226 -93005.937 166641.744 -93119.205 166830.102 -93197.226 167030.061 -93237 167233.939 -93237 167433.898 -93197.226 167622.256 -93119.205 167791.774 -93005.937 167935.937 -92861.774 168049.205 -92692.256 168127.226 -92503.898 168167 -92303.939 168167 -92100.061 168127.226 -91900.102 168049.205 -91711.744 167935.937 -91542.226 167791.774 -91398.063 167622.256 -91284.795 167433.898 -91206.774 167377.044 -91195.465 163951.648 -87770.07 163981.461 -87776 164185.339 -87776 164385.298 -87736.226 164573.656 -87658.205 164743.174 -87544.937 164887.337 -87400.774 165000.605 -87231.256 165078.626 -87042.898 165118.4 -86842.939 165118.4 -86639.061 165078.626 -86439.102 165000.605 -86250.744 164887.337 -86081.226 164743.174 -85937.063 164573.656 -85823.795 164385.298 -85745.774 164328.444 -85734.465 163927.6 -85333.622 163927.6 -79121.439 168948.34 -79121.439 168948.34 -79374.561 168997.721 -79622.821 169094.587 -79856.676 169235.215 -80067.14 169414.2 -80246.125 169624.664 -80386.753 169858.519 -80483.619 170106.779 -80533 170359.901 -80533 170608.161 -80483.619 170842.016 -80386.753 171052.48 -80246.125 171165.078 -80133.527 172067.418 -80133.527 172120.806 -80362.201 172350.714 -80468.095 172596.864 -80527.102 172849.795 -80536.952 173099.789 -80497.27 173337.236 -80409.578 173425.874 -80362.201 173479.262 -80133.527 172773.34 -79427.605 172067.418 -80133.527 171165.078 -80133.527 171231.465 -80067.14 171372.093 -79856.676 171468.959 -79622.821 171503.88 -79447.256 171524.07 -79574.449 171611.762 -79811.896 171659.139 -79900.534 171887.813 -79953.922 172593.735 -79248 172952.945 -79248 173658.867 -79953.922 173887.541 -79900.534 173993.435 -79670.626 174025.268 -79537.833 174025.268 -79898 174037.528 -80022.482 174073.838 -80142.18 174132.803 -80252.494 174212.155 -80349.185 174308.846 -80428.537 174419.16 -80487.502 174538.858 -80523.812 174663.34 -80536.072 175963.34 -80536.072 176087.822 -80523.812 176207.52 -80487.502 176317.834 -80428.537 176414.525 -80349.185 176493.877 -80252.494 176552.842 -80142.18 176589.152 -80022.482 176601.412 -79898 176601.412 -78598 176589.152 -78473.518 176552.842 -78353.82 176493.877 -78243.506 176414.525 -78146.815 176317.834 -78067.463 176207.52 -78008.498 176087.822 -77972.188 175963.34 -77959.928 174663.34 -77959.928 174538.858 -77972.188 174419.16 -78008.498 174308.846 -78067.463 174212.155 -78146.815 174132.803 -78243.506 174073.838 -78353.82 174037.528 -78473.518 174025.268 -78598 174025.268 -78938.296 174022.61 -78921.551 173934.918 -78684.104 173887.541 -78595.466 173658.867 -78542.078 172952.945 -79248 172593.735 -79248 171887.813 -78542.078 171659.139 -78595.466 171553.245 -78825.374 171501.984 -79039.211 171468.959 -78873.179 171372.093 -78639.324 171231.465 -78428.86 171165.078 -78362.473 172067.418 -78362.473 172773.34 -79068.395 173479.262 -78362.473 173425.874 -78133.799 173195.966 -78027.905 172949.816 -77968.898 172696.885 -77959.048 172446.891 -77998.73 172209.444 -78086.422 172120.806 -78133.799 172067.418 -78362.473 171165.078 -78362.473 171052.48 -78249.875 170842.016 -78109.247 170608.161 -78012.381 170359.901 -77963 170106.779 -77963 169858.519 -78012.381 169624.664 -78109.247 169414.2 -78249.875 169235.215 -78428.86 169094.587 -78639.324 168997.721 -78873.179 168948.34 -79121.439 163927.6 -79121.439 163927.6 -57866.193 164111.945 -57714.905 164275.543 -57515.56 166314.808 -57515.56 166327.068 -57640.042 166363.378 -57759.74 166422.343 -57870.054 166501.695 -57966.745 166598.386 -58046.097 166708.7 -58105.062 166828.398 -58141.372 166952.88 -58153.632 167537.13 -58150.56 167695.88 -57991.81 167695.88 -56547.56 166476.63 -56547.56 166317.88 -56706.31 166314.808 -57515.56 164275.543 -57515.56 164300.017 -57485.739 164439.766 -57224.284 164525.824 -56940.591 164547.6 -56719.495 164547.6 -56121.624 164525.824 -55900.528 164439.766 -55616.835 164300.017 -55355.381 164275.544 -55325.56 166314.808 -55325.56 166317.88 -56134.81 166476.63 -56293.56 167695.88 -56293.56 167695.88 -54849.31 167949.88 -54849.31 167949.88 -56293.56 167969.88 -56293.56 167969.88 -56547.56 167949.88 -56547.56 167949.88 -57991.81 168108.63 -58150.56 168692.88 -58153.632 168817.362 -58141.372 168937.06 -58105.062 168983.217 -58080.39 168983.218 -67573.475 168978.936 -67616.954 168996.022 -67790.444 169046.629 -67957.267 169128.807 -68111.013 169211.685 -68212 169211.688 -68212.003 169239.401 -68245.771 169273.169 -68273.484 176628.279 -75628.595 176628.28 -87105.522 176623.998 -87149.001 176641.084 -87322.491 176691.691 -87489.314 176773.869 -87643.06 176856.747 -87744.047 176856.75 -87744.05 176884.463 -87777.818 176918.231 -87805.531 177298.745 -88186.045 177326.462 -88219.818 177461.22 -88330.412 177614.966 -88412.59 177781.789 -88463.196 177911.802 -88476.001 177911.812 -88476.001 177955.278 -88480.282 177998.744 -88476.001 180569.81 -88476.001 180613.279 -88480.282 180656.748 -88476.001 180656.756 -88476.001 180786.769 -88463.196 180953.592 -88412.59 181107.338 -88330.412 181242.096 -88219.818 181269.813 -88186.045 181708.324 -87747.535 181765.178 -87736.226 181953.536 -87658.205 182123.054 -87544.937 182267.217 -87400.774 182380.485 -87231.256 182458.506 -87042.898 182498.28 -86842.939 182498.28 -86639.061 182458.506 -86439.102 182380.485 -86250.744 182267.217 -86081.226 182123.054 -85937.063 181953.536 -85823.795 181765.178 -85745.774 181565.219 -85706 181361.341 -85706 181161.382 -85745.774 180973.024 -85823.795 180803.506 -85937.063 180659.343 -86081.226 180546.075 -86250.744 180468.054 -86439.102 180456.745 -86495.956 180246.701 -86706.001 179398.28 -86706.001 179398.28 -86639.061 179358.506 -86439.102 179280.485 -86250.744 179248.28 -86202.546 179248.28 -78892.061 190227 -78892.061 190227 -79095.939 190266.774 -79295.898 190344.795 -79484.256 190458.063 -79653.774 190602.226 -79797.937 190771.744 -79911.205 190960.102 -79989.226 191160.061 -80029 191363.939 -80029 191563.898 -79989.226 191752.256 -79911.205 191921.774 -79797.937 192065.937 -79653.774 192179.205 -79484.256 192257.226 -79295.898 192268.535 -79239.043 192808.05 -78699.529 192841.817 -78671.817 192952.411 -78537.059 193034.589 -78383.313 193085.195 -78216.49 193098 -78086.477 193098 -78086.467 193102.281 -78043.001 193098 -77999.535 193098 -70192.454 193130.205 -70144.256 193208.226 -69955.898 193248 -69755.939 193248 -69552.061 193208.226 -69352.102 193130.205 -69163.744 193016.937 -68994.226 192872.774 -68850.063 192703.256 -68736.795 192514.898 -68658.774 192314.939 -68619 192111.061 -68619 191911.102 -68658.774 191722.744 -68736.795 191553.226 -68850.063 191409.063 -68994.226 191295.795 -69163.744 191217.774 -69352.102 191178 -69552.061 191178 -69755.939 191217.774 -69955.898 191295.795 -70144.256 191328.001 -70192.456 191328 -77676.421 191016.957 -77987.465 190960.102 -77998.774 190771.744 -78076.795 190602.226 -78190.063 190458.063 -78334.226 190344.795 -78503.744 190266.774 -78692.102 190227 -78892.061 179248.28 -78892.061 179248.28 -75165.523 179252.561 -75122.054 179248.28 -75078.585 179248.28 -75078.577 179235.475 -74948.564 179227.326 -74921.702 179184.869 -74781.74 179102.691 -74627.995 179019.812 -74527.007 179019.81 -74527.005 178992.097 -74493.237 178958.331 -74465.526 173294.805 -68802.001 190341.248 -68802.001 190396.999 -68807.492 190452.75 -68802.001 190452.751 -68802.001 190619.498 -68785.578 190833.446 -68720.677 191030.622 -68615.285 191203.448 -68473.45 191238.995 -68430.136 192666.257 -67002.874 192779.399 -67049.739 193288.475 -67151 193807.525 -67151 194316.601 -67049.739 194796.141 -66851.107 195227.715 -66562.738 195594.738 -66195.715 195883.107 -65764.141 196081.739 -65284.601 196183 -64775.525 196183 -64256.475 196081.739 -63747.399 195883.107 -63267.859 195594.738 -62836.285 195227.715 -62469.262 194796.141 -62180.893 194316.601 -61982.261 193807.525 -61881 193288.475 -61881 192779.399 -61982.261 192299.859 -62180.893 191868.285 -62469.262 191501.262 -62836.285 191212.893 -63267.859 191014.261 -63747.399 190913 -64256.475 190913 -64775.525 191014.261 -65284.601 191061.126 -65397.743 189926.868 -66532.001 175206.13 -66532.001 175244.528 -66378.816 175258.445 -66096.488 175217.015 -65816.87 175121.831 -65550.708 175054.899 -65425.486 174810.93 -65353.903 173997.833 -66167 174011.976 -66181.143 173832.371 -66360.748 173818.228 -66346.605 173804.086 -66360.748 173624.481 -66181.143 173638.623 -66167 173624.481 -66152.858 173804.086 -65973.253 173818.228 -65987.395 174631.325 -65174.298 174559.742 -64930.329 174304.232 -64809.429 174030.044 -64740.7 173747.716 -64726.783 173468.098 -64768.213 173201.936 -64863.397 173079.919 -64928.616 173069.413 -64915.815 172972.722 -64836.463 172862.408 -64777.498 172742.71 -64741.188 172618.228 -64728.928 171453.227 -64728.928 171453.227 -63902.071 177264.13 -58091.169 177388.129 -58128.784 177683.16 -58157.842 177978.192 -58128.784 178261.885 -58042.726 178523.339 -57902.977 178752.505 -57714.905 178916.103 -57515.56 180955.368 -57515.56 180967.628 -57640.042 181003.938 -57759.74 181062.903 -57870.054 181142.255 -57966.745 181238.946 -58046.097 181349.26 -58105.062 181468.958 -58141.372 181593.44 -58153.632 182177.69 -58150.56 182336.44 -57991.81 182336.44 -56547.56 181117.19 -56547.56 180958.44 -56706.31 180955.368 -57515.56 178916.103 -57515.56 178940.577 -57485.739 179080.326 -57224.284 179166.384 -56940.591 179188.16 -56719.495 179188.16 -56121.624 179166.384 -55900.528 179080.326 -55616.835 178940.577 -55355.381 178916.104 -55325.56 180955.368 -55325.56 180958.44 -56134.81 181117.19 -56293.56 182336.44 -56293.56 182336.44 -54849.31 182590.44 -54849.31 182590.44 -56293.56 182610.44 -56293.56 182610.44 -56547.56 182590.44 -56547.56 182590.44 -57991.81 182749.19 -58150.56 183333.44 -58153.632 183457.922 -58141.372 183577.62 -58105.062 183687.934 -58046.097 183784.625 -57966.745 183863.977 -57870.054 183922.942 -57759.74 183936.055 -57716.513 184163.262 -57902.977 184424.716 -58042.726 184708.409 -58128.784 185003.44 -58157.842 185298.472 -58128.784 185582.165 -58042.726 185843.619 -57902.977 186072.785 -57714.905 186260.857 -57485.739 186400.606 -57224.284 186486.664 -56940.591 186508.44 -56719.495 186508.44 -56121.624 186486.664 -55900.528 186400.606 -55616.835 186260.857 -55355.381 186072.785 -55126.215 185843.618 -54938.143 185582.164 -54798.394 185298.471 -54712.336 185003.44 -54683.278 184708.408 -54712.336 184424.715 -54798.394 184163.261 -54938.143 183936.055 -55124.607 183922.942 -55081.38 183863.977 -54971.066 183784.625 -54874.375 183687.934 -54795.023 183577.62 -54736.058 183457.922 -54699.748 183333.44 -54687.488 182749.19 -54690.56 182590.44 -54849.31 182336.44 -54849.31 182177.69 -54690.56 181593.44 -54687.488 181468.958 -54699.748 181349.26 -54736.058 181238.946 -54795.023 181142.255 -54874.375 181062.903 -54971.066 181003.938 -55081.38 180967.628 -55201.078 180955.368 -55325.56 178916.104 -55325.56 178752.505 -55126.215 178523.338 -54938.143 178261.884 -54798.394 177978.191 -54712.336 177683.16 -54683.278 177388.128 -54712.336 177104.435 -54798.394 176842.981 -54938.143 176615.775 -55124.607 176602.662 -55081.38 176543.697 -54971.066 176464.345 -54874.375 176367.654 -54795.023 176257.34 -54736.058 176137.642 -54699.748 176013.16 -54687.488 175428.91 -54690.56 175270.16 -54849.31 175270.16 -56293.56 175290.16 -56293.56 175290.16 -56547.56 175270.16 -56547.56 175270.16 -56567.56 175016.16 -56567.56 175016.16 -56547.56 173796.91 -56547.56 173638.16 -56706.31 173635.088 -57515.56 173647.348 -57640.042 173683.658 -57759.74 173742.623 -57870.054 173821.975 -57966.745 173918.666 -58046.097 174028.98 -58105.062 174148.678 -58141.372 174273.16 -58153.632 174700.758 -58151.384 170753.217 -62098.925 170753.217 -58099.873 170941.605 -58042.726 171203.059 -57902.977 171432.225 -57714.905 171620.297 -57485.739 171760.046 -57224.284 171846.104 -56940.591 171867.88 -56719.495 171867.88 -56121.624 171846.104 -55900.528 171760.046 -55616.835 171620.297 -55355.381 171595.824 -55325.56 173635.088 -55325.56 173638.16 -56134.81 173796.91 -56293.56 175016.16 -56293.56 175016.16 -54849.31 174857.41 -54690.56 174273.16 -54687.488 174148.678 -54699.748 174028.98 -54736.058 173918.666 -54795.023 173821.975 -54874.375 173742.623 -54971.066 173683.658 -55081.38 173647.348 -55201.078 173635.088 -55325.56 171595.824 -55325.56 171432.225 -55126.215 171203.058 -54938.143 170941.604 -54798.394 170657.911 -54712.336 170362.88 -54683.278 170067.848 -54712.336 169784.155 -54798.394 169522.701 -54938.143 169295.495 -55124.607 169282.382 -55081.38 169223.417 -54971.066 169144.065 -54874.375 169047.374 -54795.023 168937.06 -54736.058 168817.362 -54699.748 168692.88 -54687.488 168108.63 -54690.56 167949.88 -54849.31 167695.88 -54849.31 167537.13 -54690.56 166952.88 -54687.488 166828.398 -54699.748 166708.7 -54736.058 166598.386 -54795.023 166501.695 -54874.375 166422.343 -54971.066 166363.378 -55081.38 166327.068 -55201.078 166314.808 -55325.56 164275.544 -55325.56 164111.945 -55126.215 163882.778 -54938.143 163621.324 -54798.394 163337.631 -54712.336 163042.6 -54683.278 162747.568 -54712.336 162463.875 -54798.394 162202.421 -54938.143 161975.215 -55124.607 161962.102 -55081.38 161903.137 -54971.066 161823.785 -54874.375 161727.094 -54795.023 161616.78 -54736.058 161497.082 -54699.748 161372.6 -54687.488 160788.35 -54690.56 160629.6 -54849.31 160629.6 -56293.56 160649.6 -56293.56 160649.6 -56547.56 160629.6 -56547.56 160629.6 -57991.81 160788.35 -58150.56 161372.6 -58153.632 161497.082 -58141.372 161616.78 -58105.062 161727.094 -58046.097 161823.785 -57966.745 161903.137 -57870.054 161962.102 -57759.74 161975.215 -57716.513 162157.6 -57866.193 162157.601 -85656.721 162153.319 -85700.2 162170.405 -85873.69 162221.012 -86040.513 162303.19 -86194.259 162386.068 -86295.246 162386.071 -86295.249 162413.784 -86329.017 162447.551 -86356.729 162498.763 -86407.941 162333.49 -86357.805 162203.477 -86345 162203.469 -86345 162160 -86340.719 162116.531 -86345 158836.454 -86345 158788.256 -86312.795 158599.898 -86234.774 158399.939 -86195 158196.061 -86195 157996.102 -86234.774 157807.744 -86312.795 157638.226 -86426.063 157562.933 -86501.356 153031 -81969.424 153031 -78638.061 156191 -78638.061 156191 -78841.939 156230.774 -79041.898 156308.795 -79230.256 156422.063 -79399.774 156566.226 -79543.937 156735.744 -79657.205 156924.102 -79735.226 157124.061 -79775 157327.939 -79775 157527.898 -79735.226 157716.256 -79657.205 157885.774 -79543.937 158029.937 -79399.774 158143.205 -79230.256 158221.226 -79041.898 158232.535 -78985.043 158893.05 -78324.529 158926.817 -78296.817 158965.45 -78249.744 159037.41 -78162.06 159037.411 -78162.059 159119.589 -78008.313 159170.195 -77841.49 159183 -77711.477 159183 -77711.469 159187.281 -77668 159183 -77624.531 159183 -70192.454 159215.205 -70144.256 159293.226 -69955.898 159333 -69755.939 159333 -69552.061 159293.226 -69352.102 159215.205 -69163.744 159101.937 -68994.226 158957.774 -68850.063 158788.256 -68736.795 158599.898 -68658.774 158399.939 -68619 158196.061 -68619 157996.102 -68658.774 157807.744 -68736.795 157638.226 -68850.063 157494.063 -68994.226 157380.795 -69163.744 157302.774 -69352.102 157263 -69552.061 157263 -69755.939 157302.774 -69955.898 157380.795 -70144.256 157413.001 -70192.456 157413 -77301.421 156980.957 -77733.465 156924.102 -77744.774 156735.744 -77822.795 156566.226 -77936.063 156422.063 -78080.226 156308.795 -78249.744 156230.774 -78438.102 156191 -78638.061 153031 -78638.061 153031 -67001.525 153394.141 -66851.107 153825.715 -66562.738 154192.738 -66195.715 154481.107 -65764.141 154679.739 -65284.601 154781 -64775.525 154781 -64256.475 154679.739 -63747.399 154481.107 -63267.859 154192.738 -62836.285 153825.715 -62469.262 153394.141 -62180.893 152914.601 -61982.261 152405.525 -61881 151886.475 -61881 151377.399 -61982.261 150897.859 -62180.893 150466.285 -62469.262 150099.262 -62836.285 149810.893 -63267.859 149612.261 -63747.399 149511 -64256.475 147980 -64256.475 147980 -57515.56 158994.528 -57515.56 159006.788 -57640.042 159043.098 -57759.74 159102.063 -57870.054 159181.415 -57966.745 159278.106 -58046.097 159388.42 -58105.062 159508.118 -58141.372 159632.6 -58153.632 160216.85 -58150.56 160375.6 -57991.81 160375.6 -56547.56 159156.35 -56547.56 158997.6 -56706.31 158994.528 -57515.56 147980 -57515.56 147980 -54389.872 148895 -54389.872 148895 -54830.128 148980.89 -55261.925 149149.369 -55668.669 149393.962 -56034.729 149705.271 -56346.038 150071.331 -56590.631 150478.075 -56759.11 150909.872 -56845 151350.128 -56845 151781.925 -56759.11 152188.669 -56590.631 152554.729 -56346.038 152866.038 -56034.729 153110.631 -55668.669 153252.751 -55325.56 158994.528 -55325.56 158997.6 -56134.81 159156.35 -56293.56 160375.6 -56293.56 160375.6 -54849.31 160216.85 -54690.56 159632.6 -54687.488 159508.118 -54699.748 159388.42 -54736.058 159278.106 -54795.023 159181.415 -54874.375 159102.063 -54971.066 159043.098 -55081.38 159006.788 -55201.078 158994.528 -55325.56 153252.751 -55325.56 153279.11 -55261.925 153365 -54830.128 153365 -54389.872 192075 -54389.872 192075 -54830.128 192160.89 -55261.925 192329.369 -55668.669 192573.962 -56034.729 192885.271 -56346.038 193251.331 -56590.631 193658.075 -56759.11 194089.872 -56845 194530.128 -56845 194961.925 -56759.11 195368.669 -56590.631 195734.729 -56346.038 196046.038 -56034.729 196290.631 -55668.669 196459.11 -55261.925 196545 -54830.128 196545 -54389.872 196459.11 -53958.075 196290.631 -53551.331 196046.038 -53185.271 195734.729 -52873.962 195368.669 -52629.369 194961.925 -52460.89 194530.128 -52375 194089.872 -52375 193658.075 -52460.89 193251.331 -52629.369 192885.271 -52873.962 192573.962 -53185.271 192329.369 -53551.331 192160.89 -53958.075 192075 -54389.872 153365 -54389.872 153279.11 -53958.075 153110.631 -53551.331 152866.038 -53185.271 152554.729 -52873.962 152188.669 -52629.369 151781.925 -52460.89 151350.128 -52375 150909.872 -52375 150478.075 -52460.89 150071.331 -52629.369 149705.271 -52873.962 149393.962 -53185.271 149149.369 -53551.331 148980.89 -53958.075 148895 -54389.872 147980 -54389.872 147980 -52102.279 147994.722 -51952.131 148028.953 -51838.754 148084.555 -51734.181 148159.407 -51642.404 148250.664 -51566.909 148354.844 -51510.581 148467.976 -51475.56 148616.022 -51460 196817.721 -51460 196967.869 -51474.722" fill="none" stroke-width="254"/><path d="M 196967.869 -51474.722 197081.246 -51508.953 197185.819 -51564.555 197277.596 -51639.407 197353.091 -51730.664 197409.419 -51834.844 197444.44 -51947.976 197460.001 -52096.031 197460 -125697.721 197445.278 -125847.869 197411.047 -125961.246 197355.446 -126065.817 197280.594 -126157.595 197189.335 -126233.091 197085.16 -126289.419 196972.024 -126324.44 196823.979 -126340 148622.279 -126340 148472.131 -126325.278 148358.754 -126291.047 148254.183 -126235.446 148162.405 -126160.594 148086.909 -126069.335 148030.581 -125965.16 147995.56 -125852.024 147980 -125703.979 147980 -122969.872 148895 -122969.872 148895 -123410.128 148980.89 -123841.925 149149.369 -124248.669 149393.962 -124614.729 149705.271 -124926.038 150071.331 -125170.631 150478.075 -125339.11 150909.872 -125425 151350.128 -125425 151781.925 -125339.11 152188.669 -125170.631 152554.729 -124926.038 152866.038 -124614.729 153110.631 -124248.669 153279.11 -123841.925 153365 -123410.128 153365 -122969.872 192075 -122969.872 192075 -123410.128 192160.89 -123841.925 192329.369 -124248.669 192573.962 -124614.729 192885.271 -124926.038 193251.331 -125170.631 193658.075 -125339.11 194089.872 -125425 194530.128 -125425 194961.925 -125339.11 195368.669 -125170.631 195734.729 -124926.038 196046.038 -124614.729 196290.631 -124248.669 196459.11 -123841.925 196545 -123410.128 196545 -122969.872 196459.11 -122538.075 196290.631 -122131.331 196046.038 -121765.271 195734.729 -121453.962 195368.669 -121209.369 194961.925 -121040.89 194530.128 -120955 194089.872 -120955 193658.075 -121040.89 193251.331 -121209.369 192885.271 -121453.962 192573.962 -121765.271 192329.369 -122131.331 192160.89 -122538.075 192075 -122969.872 153365 -122969.872 153279.11 -122538.075 153110.631 -122131.331 152866.038 -121765.271 152554.729 -121453.962 152188.669 -121209.369 151781.925 -121040.89 151350.128 -120955 150909.872 -120955 150478.075 -121040.89 150071.331 -121209.369 149705.271 -121453.962 149393.962 -121765.271 149149.369 -122131.331 148980.89 -122538.075 148895 -122969.872 147980 -122969.872 147980 -113278.475 162998.4 -113278.475 162998.4 -113797.525 163099.661 -114306.601 163298.293 -114786.141 163586.662 -115217.715 163953.685 -115584.738 164385.259 -115873.107 164864.799 -116071.739 165373.875 -116173 165892.925 -116173 166402.001 -116071.739 166881.541 -115873.107 167313.115 -115584.738 167680.138 -115217.715 167968.507 -114786.141 168167.139 -114306.601 168268.4 -113797.525 168268.4 -113278.475 177278.28 -113278.475 177278.28 -113797.525 177379.541 -114306.601 177578.173 -114786.141 177866.542 -115217.715 178233.565 -115584.738 178665.139 -115873.107 179144.679 -116071.739 179653.755 -116173 180172.805 -116173 180681.881 -116071.739 181161.421 -115873.107 181592.995 -115584.738 181960.018 -115217.715 182248.387 -114786.141 182447.019 -114306.601 182548.28 -113797.525 182548.28 -113278.475 182447.019 -112769.399 182248.387 -112289.859 181960.018 -111858.285 181592.995 -111491.262 181161.421 -111202.893 180798.28 -111052.475 180798.28 -108536.348 185935.64 -108536.348 185935.64 -108897.812 186006.158 -109252.33 186144.484 -109586.279 186345.302 -109886.824 186600.896 -110142.418 186901.441 -110343.236 187235.39 -110481.562 187589.908 -110552.08 187951.372 -110552.08 188305.89 -110481.562 188639.839 -110343.236 188940.384 -110142.418 189195.978 -109886.824 189270.64 -109775.085 189345.302 -109886.824 189600.896 -110142.418 189901.441 -110343.236 190235.39 -110481.562 190589.908 -110552.08 190951.372 -110552.08 191305.89 -110481.562 191639.839 -110343.236 191940.384 -110142.418 192195.978 -109886.824 192396.796 -109586.279 192535.122 -109252.33 192605.64 -108897.812 192605.64 -108536.348 192535.122 -108181.83 192396.796 -107847.881 192195.978 -107547.336 191940.384 -107291.742 191639.839 -107090.924 191305.89 -106952.598 190951.372 -106882.08 190589.908 -106882.08 190235.39 -106952.598 189901.441 -107090.924 189600.896 -107291.742 189345.302 -107547.336 189270.64 -107659.075 189195.978 -107547.336 188940.384 -107291.742 188639.839 -107090.924 188305.89 -106952.598 187951.372 -106882.08 187589.908 -106882.08 187235.39 -106952.598 186901.441 -107090.924 186600.896 -107291.742 186345.302 -107547.336 186144.484 -107847.881 186006.158 -108181.83 185935.64 -108536.348 180798.28 -108536.348 180798.28 -105078.478 181720.824 -104155.935 181777.678 -104144.626 181966.036 -104066.605 182135.554 -103953.337 182279.717 -103809.174 182392.985 -103639.656 182471.006 -103451.298 182510.78 -103251.339 182510.78 -103047.461 182471.006 -102847.502 182392.985 -102659.144 182279.717 -102489.626 182135.554 -102345.463 181966.036 -102232.195 181777.678 -102154.174 181577.719 -102114.4 181373.841 -102114.4 181173.882 -102154.174 180985.524 -102232.195 180816.006 -102345.463 180671.843 -102489.626 180558.575 -102659.144 180480.554 -102847.502 180469.245 -102904.356 179318.231 -104055.371 179284.464 -104083.083 179256.751 -104116.851 179256.748 -104116.854 179173.87 -104217.841 179091.692 -104371.587 179041.085 -104538.41 179023.999 -104711.9 179028.281 -104755.379 179028.28 -111052.475 178665.139 -111202.893 178233.565 -111491.262 177866.542 -111858.285 177578.173 -112289.859 177379.541 -112769.399 177278.28 -113278.475 168268.4 -113278.475 168167.139 -112769.399 167968.507 -112289.859 167680.138 -111858.285 167313.115 -111491.262 166881.541 -111202.893 166518.4 -111052.475 166518.4 -104755.369 166522.681 -104711.9 166518.4 -104668.431 166518.4 -104668.423 166505.595 -104538.41 166454.989 -104371.587 166454.989 -104371.586 166372.811 -104217.841 166289.932 -104116.853 166289.93 -104116.851 166262.217 -104083.083 166228.449 -104055.37 165077.435 -102904.357 165066.126 -102847.502 164988.105 -102659.144 164874.837 -102489.626 164730.674 -102345.463 164561.156 -102232.195 164372.798 -102154.174 164172.839 -102114.4 163968.961 -102114.4 163769.002 -102154.174 163580.644 -102232.195 163411.126 -102345.463 163266.963 -102489.626 163153.695 -102659.144 163075.674 -102847.502 163035.9 -103047.461 163035.9 -103251.339 163075.674 -103451.298 163153.695 -103639.656 163266.963 -103809.174 163411.126 -103953.337 163580.644 -104066.605 163769.002 -104144.626 163825.857 -104155.935 164748.401 -105078.48 164748.4 -111052.475 164385.259 -111202.893 163953.685 -111491.262 163586.662 -111858.285 163298.293 -112289.859 163099.661 -112769.399 162998.4 -113278.475 147980 -113278.475 147980 -108536.348 152631.16 -108536.348 152631.16 -108897.812 152701.678 -109252.33 152840.004 -109586.279 153040.822 -109886.824 153296.416 -110142.418 153596.961 -110343.236 153930.91 -110481.562 154285.428 -110552.08 154646.892 -110552.08 155001.41 -110481.562 155335.359 -110343.236 155635.904 -110142.418 155891.498 -109886.824 155966.16 -109775.085 156040.822 -109886.824 156296.416 -110142.418 156596.961 -110343.236 156930.91 -110481.562 157285.428 -110552.08 157646.892 -110552.08 158001.41 -110481.562 158335.359 -110343.236 158635.904 -110142.418 158891.498 -109886.824 159092.316 -109586.279 159230.642 -109252.33 159301.16 -108897.812 159301.16 -108536.348 159230.642 -108181.83 159092.316 -107847.881 158891.498 -107547.336 158635.904 -107291.742 158335.359 -107090.924 158001.41 -106952.598 157646.892 -106882.08 157285.428 -106882.08 156930.91 -106952.598 156596.961 -107090.924 156296.416 -107291.742 156040.822 -107547.336 155966.16 -107659.075 155891.498 -107547.336 155635.904 -107291.742 155335.359 -107090.924 155001.41 -106952.598 154646.892 -106882.08 154285.428 -106882.08 153930.91 -106952.598 153596.961 -107090.924 153296.416 -107291.742 153040.822 -107547.336 152840.004 -107847.881 152701.678 -108181.83 152631.16 -108536.348 147980 -108536.348 147980 -97530.475 153331.16 -97530.475 153331.16 -98049.525 153432.421 -98558.601 153631.053 -99038.141 153919.422 -99469.715 154286.445 -99836.738 154718.019 -100125.107 155197.559 -100323.739 155706.635 -100425 156225.685 -100425 156734.761 -100323.739 157214.301 -100125.107 157645.875 -99836.738 158012.898 -99469.715 158301.267 -99038.141 158499.899 -98558.601 158601.16 -98049.525 158601.16 -97530.475 186635.64 -97530.475 186635.64 -98049.525 186736.901 -98558.601 186935.533 -99038.141 187223.902 -99469.715 187590.925 -99836.738 188022.499 -100125.107 188502.039 -100323.739 189011.115 -100425 189530.165 -100425 190039.241 -100323.739 190518.781 -100125.107 190950.355 -99836.738 191317.378 -99469.715 191605.747 -99038.141 191804.379 -98558.601 191905.64 -98049.525 191905.64 -97530.475 191804.379 -97021.399 191605.747 -96541.859 191317.378 -96110.285 190950.355 -95743.262 190518.781 -95454.893 190039.241 -95256.261 189530.165 -95155 189011.115 -95155 188502.039 -95256.261 188022.499 -95454.893 187590.925 -95743.262 187223.902 -96110.285 186935.533 -96541.859 186736.901 -97021.399 186635.64 -97530.475 158601.16 -97530.475 158499.899 -97021.399 158301.267 -96541.859 158012.898 -96110.285 157645.875 -95743.262 157214.301 -95454.893 156734.761 -95256.261 156225.685 -95155 155706.635 -95155 155197.559 -95256.261 154718.019 -95454.893 154286.445 -95743.262 153919.422 -96110.285 153631.053 -96541.859 153432.421 -97021.399 153331.16 -97530.475 147980 -97530.475 147980 -64256.475 149511 -64256.475 149511 -64775.525 149612.261 -65284.601 149810.893 -65764.141 150099.262 -66195.715 150466.285 -66562.738 150897.859 -66851.107 151261.001 -67001.525 151261 -82292.533 151256.719 -82336.002 151261 -82379.471 151261 -82379.478 151273.805 -82509.491 151324.411 -82676.314 151406.589 -82830.06 151517.183 -82964.819 151550.956 -82992.536 161346.434 -92788.015 161374.147 -92821.783 161407.915 -92849.496 161407.917 -92849.498 161479.416 -92908.176 161508.905 -92932.377 161662.651 -93014.555 161829.474 -93065.161 161959.487 -93077.966 161959.497 -93077.966 162002.963 -93082.247 162046.429 -93077.966 163532.446 -93077.966 163580.644 -93110.171 163769.002 -93188.192 163968.961 -93227.966 164172.839 -93227.966 164372.798 -93188.192 164561.156 -93110.171 164730.674 -92996.903 164874.837 -92852.74 164988.105 -92683.222 165066.126 -92494.864 165105.9 -92294.905 165105.9 -92091.027 165066.126 -91891.068 164988.105 -91702.71 164874.837 -91533.192 164730.674 -91389.029 164561.156 -91275.761 164372.798 -91197.74 164172.839 -91157.966 163968.961 -91157.966 163769.002 -91197.74 163580.644 -91275.761 163532.446 -91307.966 162369.543 -91307.966 159176.577 -88115 161793.422 -88115 166125.465 -92447.044 166136.774 -92503.898 166214.795 -92692.256 166328.063 -92861.774 166472.226 -93005.937 166641.744 -93119.205 166830.102 -93197.226 167030.061 -93237 167233.939 -93237 167433.898 -93197.226 167622.256 -93119.205 167791.774 -93005.937 167935.937 -92861.774 168049.205 -92692.256 168127.226 -92503.898 168167 -92303.939 168167 -92100.061 168127.226 -91900.102 168049.205 -91711.744 167935.937 -91542.226 167791.774 -91398.063 167622.256 -91284.795 167433.898 -91206.774 167377.044 -91195.465 163951.648 -87770.07 163981.461 -87776 164185.339 -87776 164385.298 -87736.226 164573.656 -87658.205 164743.174 -87544.937 164887.337 -87400.774 165000.605 -87231.256 165078.626 -87042.898 165118.4 -86842.939 165118.4 -86639.061 165078.626 -86439.102 165000.605 -86250.744 164887.337 -86081.226 164743.174 -85937.063 164573.656 -85823.795 164385.298 -85745.774 164328.444 -85734.465 163927.6 -85333.622 163927.6 -79121.439 168948.34 -79121.439 168948.34 -79374.561 168997.721 -79622.821 169094.587 -79856.676 169235.215 -80067.14 169414.2 -80246.125 169624.664 -80386.753 169858.519 -80483.619 170106.779 -80533 170359.901 -80533 170608.161 -80483.619 170842.016 -80386.753 171052.48 -80246.125 171165.078 -80133.527 172067.418 -80133.527 172120.806 -80362.201 172350.714 -80468.095 172596.864 -80527.102 172849.795 -80536.952 173099.789 -80497.27 173337.236 -80409.578 173425.874 -80362.201 173479.262 -80133.527 172773.34 -79427.605 172067.418 -80133.527 171165.078 -80133.527 171231.465 -80067.14 171372.093 -79856.676 171468.959 -79622.821 171503.88 -79447.256 171524.07 -79574.449 171611.762 -79811.896 171659.139 -79900.534 171887.813 -79953.922 172593.735 -79248 172952.945 -79248 173658.867 -79953.922 173887.541 -79900.534 173993.435 -79670.626 174025.268 -79537.833 174025.268 -79898 174037.528 -80022.482 174073.838 -80142.18 174132.803 -80252.494 174212.155 -80349.185 174308.846 -80428.537 174419.16 -80487.502 174538.858 -80523.812 174663.34 -80536.072 175963.34 -80536.072 176087.822 -80523.812 176207.52 -80487.502 176317.834 -80428.537 176414.525 -80349.185 176493.877 -80252.494 176552.842 -80142.18 176589.152 -80022.482 176601.412 -79898 176601.412 -78598 176589.152 -78473.518 176552.842 -78353.82 176493.877 -78243.506 176414.525 -78146.815 176317.834 -78067.463 176207.52 -78008.498 176087.822 -77972.188 175963.34 -77959.928 174663.34 -77959.928 174538.858 -77972.188 174419.16 -78008.498 174308.846 -78067.463 174212.155 -78146.815 174132.803 -78243.506 174073.838 -78353.82 174037.528 -78473.518 174025.268 -78598 174025.268 -78938.296 174022.61 -78921.551 173934.918 -78684.104 173887.541 -78595.466 173658.867 -78542.078 172952.945 -79248 172593.735 -79248 171887.813 -78542.078 171659.139 -78595.466 171553.245 -78825.374 171501.984 -79039.211 171468.959 -78873.179 171372.093 -78639.324 171231.465 -78428.86 171165.078 -78362.473 172067.418 -78362.473 172773.34 -79068.395 173479.262 -78362.473 173425.874 -78133.799 173195.966 -78027.905 172949.816 -77968.898 172696.885 -77959.048 172446.891 -77998.73 172209.444 -78086.422 172120.806 -78133.799 172067.418 -78362.473 171165.078 -78362.473 171052.48 -78249.875 170842.016 -78109.247 170608.161 -78012.381 170359.901 -77963 170106.779 -77963 169858.519 -78012.381 169624.664 -78109.247 169414.2 -78249.875 169235.215 -78428.86 169094.587 -78639.324 168997.721 -78873.179 168948.34 -79121.439 163927.6 -79121.439 163927.6 -57866.193 164111.945 -57714.905 164275.543 -57515.56 166314.808 -57515.56 166327.068 -57640.042 166363.378 -57759.74 166422.343 -57870.054 166501.695 -57966.745 166598.386 -58046.097 166708.7 -58105.062 166828.398 -58141.372 166952.88 -58153.632 167537.13 -58150.56 167695.88 -57991.81 167695.88 -56547.56 166476.63 -56547.56 166317.88 -56706.31 166314.808 -57515.56 164275.543 -57515.56 164300.017 -57485.739 164439.766 -57224.284 164525.824 -56940.591 164547.6 -56719.495 164547.6 -56121.624 164525.824 -55900.528 164439.766 -55616.835 164300.017 -55355.381 164275.544 -55325.56 166314.808 -55325.56 166317.88 -56134.81 166476.63 -56293.56 167695.88 -56293.56 167695.88 -54849.31 167949.88 -54849.31 167949.88 -56293.56 167969.88 -56293.56 167969.88 -56547.56 167949.88 -56547.56 167949.88 -57991.81 168108.63 -58150.56 168692.88 -58153.632 168817.362 -58141.372 168937.06 -58105.062 168983.217 -58080.39 168983.218 -67573.475 168978.936 -67616.954 168996.022 -67790.444 169046.629 -67957.267 169128.807 -68111.013 169211.685 -68212 169211.688 -68212.003 169239.401 -68245.771 169273.169 -68273.484 176628.279 -75628.595 176628.28 -87105.522 176623.998 -87149.001 176641.084 -87322.491 176691.691 -87489.314 176773.869 -87643.06 176856.747 -87744.047 176856.75 -87744.05 176884.463 -87777.818 176918.231 -87805.531 177298.745 -88186.045 177326.462 -88219.818 177461.22 -88330.412 177614.966 -88412.59 177781.789 -88463.196 177911.802 -88476.001 177911.812 -88476.001 177955.278 -88480.282 177998.744 -88476.001 180569.81 -88476.001 180613.279 -88480.282 180656.748 -88476.001 180656.756 -88476.001 180786.769 -88463.196 180953.592 -88412.59 181107.338 -88330.412 181242.096 -88219.818 181269.813 -88186.045 181708.324 -87747.535 181765.178 -87736.226 181953.536 -87658.205 182123.054 -87544.937 182267.217 -87400.774 182380.485 -87231.256 182458.506 -87042.898 182498.28 -86842.939 182498.28 -86639.061 182458.506 -86439.102 182380.485 -86250.744 182267.217 -86081.226 182123.054 -85937.063 181953.536 -85823.795 181765.178 -85745.774 181565.219 -85706 181361.341 -85706 181161.382 -85745.774 180973.024 -85823.795 180803.506 -85937.063 180659.343 -86081.226 180546.075 -86250.744 180468.054 -86439.102 180456.745 -86495.956 180246.701 -86706.001 179398.28 -86706.001 179398.28 -86639.061 179358.506 -86439.102 179280.485 -86250.744 179248.28 -86202.546 179248.28 -78892.061 190227 -78892.061 190227 -79095.939 190266.774 -79295.898 190344.795 -79484.256 190458.063 -79653.774 190602.226 -79797.937 190771.744 -79911.205 190960.102 -79989.226 191160.061 -80029 191363.939 -80029 191563.898 -79989.226 191752.256 -79911.205 191921.774 -79797.937 192065.937 -79653.774 192179.205 -79484.256 192257.226 -79295.898 192268.535 -79239.043 192808.05 -78699.529 192841.817 -78671.817 192952.411 -78537.059 193034.589 -78383.313 193085.195 -78216.49 193098 -78086.477 193098 -78086.467 193102.281 -78043.001 193098 -77999.535 193098 -70192.454 193130.205 -70144.256 193208.226 -69955.898 193248 -69755.939 193248 -69552.061 193208.226 -69352.102 193130.205 -69163.744 193016.937 -68994.226 192872.774 -68850.063 192703.256 -68736.795 192514.898 -68658.774 192314.939 -68619 192111.061 -68619 191911.102 -68658.774 191722.744 -68736.795 191553.226 -68850.063 191409.063 -68994.226 191295.795 -69163.744 191217.774 -69352.102 191178 -69552.061 191178 -69755.939 191217.774 -69955.898 191295.795 -70144.256 191328.001 -70192.456 191328 -77676.421 191016.957 -77987.465 190960.102 -77998.774 190771.744 -78076.795 190602.226 -78190.063 190458.063 -78334.226 190344.795 -78503.744 190266.774 -78692.102 190227 -78892.061 179248.28 -78892.061 179248.28 -75165.523 179252.561 -75122.054 179248.28 -75078.585 179248.28 -75078.577 179235.475 -74948.564 179227.326 -74921.702 179184.869 -74781.74 179102.691 -74627.995 179019.812 -74527.007 179019.81 -74527.005 178992.097 -74493.237 178958.331 -74465.526 173294.805 -68802.001 190341.248 -68802.001 190396.999 -68807.492 190452.75 -68802.001 190452.751 -68802.001 190619.498 -68785.578 190833.446 -68720.677 191030.622 -68615.285 191203.448 -68473.45 191238.995 -68430.136 192666.257 -67002.874 192779.399 -67049.739 193288.475 -67151 193807.525 -67151 194316.601 -67049.739 194796.141 -66851.107 195227.715 -66562.738 195594.738 -66195.715 195883.107 -65764.141 196081.739 -65284.601 196183 -64775.525 196183 -64256.475 196081.739 -63747.399 195883.107 -63267.859 195594.738 -62836.285 195227.715 -62469.262 194796.141 -62180.893 194316.601 -61982.261 193807.525 -61881 193288.475 -61881 192779.399 -61982.261 192299.859 -62180.893 191868.285 -62469.262 191501.262 -62836.285 191212.893 -63267.859 191014.261 -63747.399 190913 -64256.475 190913 -64775.525 191014.261 -65284.601 191061.126 -65397.743 189926.868 -66532.001 175206.13 -66532.001 175244.528 -66378.816 175258.445 -66096.488 175217.015 -65816.87 175121.831 -65550.708 175054.899 -65425.486 174810.93 -65353.903 173997.833 -66167 174011.976 -66181.143 173832.371 -66360.748 173818.228 -66346.605 173804.086 -66360.748 173624.481 -66181.143 173638.623 -66167 173624.481 -66152.858 173804.086 -65973.253 173818.228 -65987.395 174631.325 -65174.298 174559.742 -64930.329 174304.232 -64809.429 174030.044 -64740.7 173747.716 -64726.783 173468.098 -64768.213 173201.936 -64863.397 173079.919 -64928.616 173069.413 -64915.815 172972.722 -64836.463 172862.408 -64777.498 172742.71 -64741.188 172618.228 -64728.928 171453.227 -64728.928 171453.227 -63902.071 177264.13 -58091.169 177388.129 -58128.784 177683.16 -58157.842 177978.192 -58128.784 178261.885 -58042.726 178523.339 -57902.977 178752.505 -57714.905 178916.103 -57515.56 180955.368 -57515.56 180967.628 -57640.042 181003.938 -57759.74 181062.903 -57870.054 181142.255 -57966.745 181238.946 -58046.097 181349.26 -58105.062 181468.958 -58141.372 181593.44 -58153.632 182177.69 -58150.56 182336.44 -57991.81 182336.44 -56547.56 181117.19 -56547.56 180958.44 -56706.31 180955.368 -57515.56 178916.103 -57515.56 178940.577 -57485.739 179080.326 -57224.284 179166.384 -56940.591 179188.16 -56719.495 179188.16 -56121.624 179166.384 -55900.528 179080.326 -55616.835 178940.577 -55355.381 178916.104 -55325.56 180955.368 -55325.56 180958.44 -56134.81 181117.19 -56293.56 182336.44 -56293.56 182336.44 -54849.31 182590.44 -54849.31 182590.44 -56293.56 182610.44 -56293.56 182610.44 -56547.56 182590.44 -56547.56 182590.44 -57991.81 182749.19 -58150.56 183333.44 -58153.632 183457.922 -58141.372 183577.62 -58105.062 183687.934 -58046.097 183784.625 -57966.745 183863.977 -57870.054 183922.942 -57759.74 183936.055 -57716.513 184163.262 -57902.977 184424.716 -58042.726 184708.409 -58128.784 185003.44 -58157.842 185298.472 -58128.784 185582.165 -58042.726 185843.619 -57902.977 186072.785 -57714.905 186260.857 -57485.739 186400.606 -57224.284 186486.664 -56940.591 186508.44 -56719.495 186508.44 -56121.624 186486.664 -55900.528 186400.606 -55616.835 186260.857 -55355.381 186072.785 -55126.215 185843.618 -54938.143 185582.164 -54798.394 185298.471 -54712.336 185003.44 -54683.278 184708.408 -54712.336 184424.715 -54798.394 184163.261 -54938.143 183936.055 -55124.607 183922.942 -55081.38 183863.977 -54971.066 183784.625 -54874.375 183687.934 -54795.023 183577.62 -54736.058 183457.922 -54699.748 183333.44 -54687.488 182749.19 -54690.56 182590.44 -54849.31 182336.44 -54849.31 182177.69 -54690.56 181593.44 -54687.488 181468.958 -54699.748 181349.26 -54736.058 181238.946 -54795.023 181142.255 -54874.375 181062.903 -54971.066 181003.938 -55081.38 180967.628 -55201.078 180955.368 -55325.56 178916.104 -55325.56 178752.505 -55126.215 178523.338 -54938.143 178261.884 -54798.394 177978.191 -54712.336 177683.16 -54683.278 177388.128 -54712.336 177104.435 -54798.394 176842.981 -54938.143 176615.775 -55124.607 176602.662 -55081.38 176543.697 -54971.066 176464.345 -54874.375 176367.654 -54795.023 176257.34 -54736.058 176137.642 -54699.748 176013.16 -54687.488 175428.91 -54690.56 175270.16 -54849.31 175270.16 -56293.56 175290.16 -56293.56 175290.16 -56547.56 175270.16 -56547.56 175270.16 -56567.56 175016.16 -56567.56 175016.16 -56547.56 173796.91 -56547.56 173638.16 -56706.31 173635.088 -57515.56 173647.348 -57640.042 173683.658 -57759.74 173742.623 -57870.054 173821.975 -57966.745 173918.666 -58046.097 174028.98 -58105.062 174148.678 -58141.372 174273.16 -58153.632 174700.758 -58151.384 170753.217 -62098.925 170753.217 -58099.873 170941.605 -58042.726 171203.059 -57902.977 171432.225 -57714.905 171620.297 -57485.739 171760.046 -57224.284 171846.104 -56940.591 171867.88 -56719.495 171867.88 -56121.624 171846.104 -55900.528 171760.046 -55616.835 171620.297 -55355.381 171595.824 -55325.56 173635.088 -55325.56 173638.16 -56134.81 173796.91 -56293.56 175016.16 -56293.56 175016.16 -54849.31 174857.41 -54690.56 174273.16 -54687.488 174148.678 -54699.748 174028.98 -54736.058 173918.666 -54795.023 173821.975 -54874.375 173742.623 -54971.066 173683.658 -55081.38 173647.348 -55201.078 173635.088 -55325.56 171595.824 -55325.56 171432.225 -55126.215 171203.058 -54938.143 170941.604 -54798.394 170657.911 -54712.336 170362.88 -54683.278 170067.848 -54712.336 169784.155 -54798.394 169522.701 -54938.143 169295.495 -55124.607 169282.382 -55081.38 169223.417 -54971.066 169144.065 -54874.375 169047.374 -54795.023 168937.06 -54736.058 168817.362 -54699.748 168692.88 -54687.488 168108.63 -54690.56 167949.88 -54849.31 167695.88 -54849.31 167537.13 -54690.56 166952.88 -54687.488 166828.398 -54699.748 166708.7 -54736.058 166598.386 -54795.023 166501.695 -54874.375 166422.343 -54971.066 166363.378 -55081.38 166327.068 -55201.078 166314.808 -55325.56 164275.544 -55325.56 164111.945 -55126.215 163882.778 -54938.143 163621.324 -54798.394 163337.631 -54712.336 163042.6 -54683.278 162747.568 -54712.336 162463.875 -54798.394 162202.421 -54938.143 161975.215 -55124.607 161962.102 -55081.38 161903.137 -54971.066 161823.785 -54874.375 161727.094 -54795.023 161616.78 -54736.058 161497.082 -54699.748 161372.6 -54687.488 160788.35 -54690.56 160629.6 -54849.31 160629.6 -56293.56 160649.6 -56293.56 160649.6 -56547.56 160629.6 -56547.56 160629.6 -57991.81 160788.35 -58150.56 161372.6 -58153.632 161497.082 -58141.372 161616.78 -58105.062 161727.094 -58046.097 161823.785 -57966.745 161903.137 -57870.054 161962.102 -57759.74 161975.215 -57716.513 162157.6 -57866.193 162157.601 -85656.721 162153.319 -85700.2 162170.405 -85873.69 162221.012 -86040.513 162303.19 -86194.259 162386.068 -86295.246 162386.071 -86295.249 162413.784 -86329.017 162447.551 -86356.729 162498.763 -86407.941 162333.49 -86357.805 162203.477 -86345 162203.469 -86345 162160 -86340.719 162116.531 -86345 158836.454 -86345 158788.256 -86312.795 158599.898 -86234.774 158399.939 -86195 158196.061 -86195 157996.102 -86234.774 157807.744 -86312.795 157638.226 -86426.063 157562.933 -86501.356 153031 -81969.424 153031 -78638.061 156191 -78638.061 156191 -78841.939 156230.774 -79041.898 156308.795 -79230.256 156422.063 -79399.774 156566.226 -79543.937 156735.744 -79657.205 156924.102 -79735.226 157124.061 -79775 157327.939 -79775 157527.898 -79735.226 157716.256 -79657.205 157885.774 -79543.937 158029.937 -79399.774 158143.205 -79230.256 158221.226 -79041.898 158232.535 -78985.043 158893.05 -78324.529 158926.817 -78296.817 158965.45 -78249.744 159037.41 -78162.06 159037.411 -78162.059 159119.589 -78008.313 159170.195 -77841.49 159183 -77711.477 159183 -77711.469 159187.281 -77668 159183 -77624.531 159183 -70192.454 159215.205 -70144.256 159293.226 -69955.898 159333 -69755.939 159333 -69552.061 159293.226 -69352.102 159215.205 -69163.744 159101.937 -68994.226 158957.774 -68850.063 158788.256 -68736.795 158599.898 -68658.774 158399.939 -68619 158196.061 -68619 157996.102 -68658.774 157807.744 -68736.795 157638.226 -68850.063 157494.063 -68994.226 157380.795 -69163.744 157302.774 -69352.102 157263 -69552.061 157263 -69755.939 157302.774 -69955.898 157380.795 -70144.256 157413.001 -70192.456 157413 -77301.421 156980.957 -77733.465 156924.102 -77744.774 156735.744 -77822.795 156566.226 -77936.063 156422.063 -78080.226 156308.795 -78249.744 156230.774 -78438.102 156191 -78638.061 153031 -78638.061 153031 -67001.525 153394.141 -66851.107 153825.715 -66562.738 154192.738 -66195.715 154481.107 -65764.141 154679.739 -65284.601 154781 -64775.525 154781 -64256.475 154679.739 -63747.399 154481.107 -63267.859 154192.738 -62836.285 153825.715 -62469.262 153394.141 -62180.893 152914.601 -61982.261 152405.525 -61881 151886.475 -61881 151377.399 -61982.261 150897.859 -62180.893 150466.285 -62469.262 150099.262 -62836.285 149810.893 -63267.859 149612.261 -63747.399 149511 -64256.475 147980 -64256.475 147980 -57515.56 158994.528 -57515.56 159006.788 -57640.042 159043.098 -57759.74 159102.063 -57870.054 159181.415 -57966.745 159278.106 -58046.097 159388.42 -58105.062 159508.118 -58141.372 159632.6 -58153.632 160216.85 -58150.56 160375.6 -57991.81 160375.6 -56547.56 159156.35 -56547.56 158997.6 -56706.31 158994.528 -57515.56 147980 -57515.56 147980 -54389.872 148895 -54389.872 148895 -54830.128 148980.89 -55261.925 149149.369 -55668.669 149393.962 -56034.729 149705.271 -56346.038 150071.331 -56590.631 150478.075 -56759.11 150909.872 -56845 151350.128 -56845 151781.925 -56759.11 152188.669 -56590.631 152554.729 -56346.038 152866.038 -56034.729 153110.631 -55668.669 153252.751 -55325.56 158994.528 -55325.56 158997.6 -56134.81 159156.35 -56293.56 160375.6 -56293.56 160375.6 -54849.31 160216.85 -54690.56 159632.6 -54687.488 159508.118 -54699.748 159388.42 -54736.058 159278.106 -54795.023 159181.415 -54874.375 159102.063 -54971.066 159043.098 -55081.38 159006.788 -55201.078 158994.528 -55325.56 153252.751 -55325.56 153279.11 -55261.925 153365 -54830.128 153365 -54389.872 192075 -54389.872 192075 -54830.128 192160.89 -55261.925 192329.369 -55668.669 192573.962 -56034.729 192885.271 -56346.038 193251.331 -56590.631 193658.075 -56759.11 194089.872 -56845 194530.128 -56845 194961.925 -56759.11 195368.669 -56590.631 195734.729 -56346.038 196046.038 -56034.729 196290.631 -55668.669 196459.11 -55261.925 196545 -54830.128 196545 -54389.872 196459.11 -53958.075 196290.631 -53551.331 196046.038 -53185.271 195734.729 -52873.962 195368.669 -52629.369 194961.925 -52460.89 194530.128 -52375 194089.872 -52375 193658.075 -52460.89 193251.331 -52629.369 192885.271 -52873.962 192573.962 -53185.271 192329.369 -53551.331 192160.89 -53958.075 192075 -54389.872 153365 -54389.872 153279.11 -53958.075 153110.631 -53551.331 152866.038 -53185.271 152554.729 -52873.962 152188.669 -52629.369 151781.925 -52460.89 151350.128 -52375 150909.872 -52375 150478.075 -52460.89 150071.331 -52629.369 149705.271 -52873.962 149393.962 -53185.271 149149.369 -53551.331 148980.89 -53958.075 148895 -54389.872 147980 -54389.872 147980 -52102.279 147994.722 -51952.131 148028.953 -51838.754 148084.555 -51734.181 148159.407 -51642.404 148250.664 -51566.909 148354.844 -51510.581 148467.976 -51475.56 148616.022 -51460 196817.721 -51460 196967.869 -51474.722"/></g><g id="MsLDIIUkvrVw_bottom_soldermask"><use xlink:href="#xbhMIffEoF9x_pad-10" x="193548" y="-64516"/><use xlink:href="#xbhMIffEoF9x_pad-10" x="179913.28" y="-113538"/><use xlink:href="#xbhMIffEoF9x_pad-10" x="189270.64" y="-97790"/><use xlink:href="#xbhMIffEoF9x_pad-10" x="165633.4" y="-113538"/><use xlink:href="#xbhMIffEoF9x_pad-10" x="155966.16" y="-97790"/><use xlink:href="#xbhMIffEoF9x_pad-10" x="152146" y="-64516"/><use xlink:href="#xbhMIffEoF9x_pad-11" x="194310" y="-123190"/><use xlink:href="#xbhMIffEoF9x_pad-11" x="151130" y="-123190"/><use xlink:href="#xbhMIffEoF9x_pad-11" x="151130" y="-54610"/><use xlink:href="#xbhMIffEoF9x_pad-11" x="194310" y="-54610"/><use xlink:href="#xbhMIffEoF9x_pad-12" x="172773.34" y="-79248"/><use xlink:href="#xbhMIffEoF9x_pad-12" x="170233.34" y="-79248"/><use xlink:href="#xbhMIffEoF9x_pad-13" x="175313.34" y="-79248"/><use xlink:href="#xbhMIffEoF9x_pad-14" x="173818.228" y="-66167"/><use xlink:href="#xbhMIffEoF9x_pad-15" x="171818.228" y="-66167"/><use xlink:href="#xbhMIffEoF9x_pad-16" x="163042.6" y="-56420.56"/><path d="M 159632.6 -57265.561 159632.6 -55575.559 A 249.999 249.999 0 0 0 159882.599 -55325.56 L 161122.601 -55325.56 A 249.999 249.999 0 0 0 161372.6 -55575.559 L 161372.6 -57265.561 A 249.999 249.999 0 0 0 161122.601 -57515.56 L 159882.599 -57515.56 A 249.999 249.999 0 0 0 159632.6 -57265.561"/><use xlink:href="#xbhMIffEoF9x_pad-16" x="170362.88" y="-56420.56"/><path d="M 166952.88 -57265.561 166952.88 -55575.559 A 249.999 249.999 0 0 0 167202.879 -55325.56 L 168442.881 -55325.56 A 249.999 249.999 0 0 0 168692.88 -55575.559 L 168692.88 -57265.561 A 249.999 249.999 0 0 0 168442.881 -57515.56 L 167202.879 -57515.56 A 249.999 249.999 0 0 0 166952.88 -57265.561"/><use xlink:href="#xbhMIffEoF9x_pad-16" x="177683.16" y="-56420.56"/><path d="M 174273.16 -57265.561 174273.16 -55575.559 A 249.999 249.999 0 0 0 174523.159 -55325.56 L 175763.161 -55325.56 A 249.999 249.999 0 0 0 176013.16 -55575.559 L 176013.16 -57265.561 A 249.999 249.999 0 0 0 175763.161 -57515.56 L 174523.159 -57515.56 A 249.999 249.999 0 0 0 174273.16 -57265.561"/><use xlink:href="#xbhMIffEoF9x_pad-17" x="187770.64" y="-108717.08"/><use xlink:href="#xbhMIffEoF9x_pad-17" x="190770.64" y="-108717.08"/><use xlink:href="#xbhMIffEoF9x_pad-17" x="157466.16" y="-108717.08"/><use xlink:href="#xbhMIffEoF9x_pad-17" x="154466.16" y="-108717.08"/><use xlink:href="#xbhMIffEoF9x_pad-16" x="185003.44" y="-56420.56"/><path d="M 181593.44 -57265.561 181593.44 -55575.559 A 249.999 249.999 0 0 0 181843.439 -55325.56 L 183083.441 -55325.56 A 249.999 249.999 0 0 0 183333.44 -55575.559 L 183333.44 -57265.561 A 249.999 249.999 0 0 0 183083.441 -57515.56 L 181843.439 -57515.56 A 249.999 249.999 0 0 0 181593.44 -57265.561"/></g><g id="MsLDIIUkvrVw_bottom_drill1" transform="scale(25.4,25.4)"><use xlink:href="#na5OINCTjYDG_pad-1" x="7650" y="-2150"/><use xlink:href="#na5OINCTjYDG_pad-1" x="5950" y="-2150"/><use xlink:href="#na5OINCTjYDG_pad-1" x="7650" y="-4850"/><use xlink:href="#na5OINCTjYDG_pad-1" x="5950" y="-4850"/></g><g id="MsLDIIUkvrVw_bottom_drill2" transform="scale(25.4,25.4)"><use xlink:href="#F0jviFCZ1X6t_pad-1" x="6190" y="-3100"/><use xlink:href="#F0jviFCZ1X6t_pad-1" x="6232.2" y="-2742.3"/><use xlink:href="#F0jviFCZ1X6t_pad-1" x="6232.2" y="-3434.3"/><use xlink:href="#F0jviFCZ1X6t_pad-1" x="6459.5" y="-3629.6"/><use xlink:href="#F0jviFCZ1X6t_pad-1" x="6459.5" y="-4061"/><use xlink:href="#F0jviFCZ1X6t_pad-1" x="6460" y="-3415"/><use xlink:href="#F0jviFCZ1X6t_pad-1" x="6580" y="-3630"/><use xlink:href="#F0jviFCZ1X6t_pad-1" x="7022.2" y="-3415"/><use xlink:href="#F0jviFCZ1X6t_pad-1" x="7144.2" y="-3415"/><use xlink:href="#F0jviFCZ1X6t_pad-1" x="7144.7" y="-4061"/><use xlink:href="#F0jviFCZ1X6t_pad-1" x="7530" y="-3110"/><use xlink:href="#F0jviFCZ1X6t_pad-1" x="7567.4" y="-2742.3"/><use xlink:href="#F0jviFCZ1X6t_pad-2" x="6702.1" y="-3120"/><use xlink:href="#F0jviFCZ1X6t_pad-2" x="6802.1" y="-3120"/><use xlink:href="#F0jviFCZ1X6t_pad-2" x="6902.1" y="-3120"/><use xlink:href="#F0jviFCZ1X6t_pad-3" x="6764.5" y="-2605"/><use xlink:href="#F0jviFCZ1X6t_pad-3" x="6843.2" y="-2605"/><use xlink:href="#F0jviFCZ1X6t_pad-4" x="7183.6" y="-2221.3"/><use xlink:href="#F0jviFCZ1X6t_pad-4" x="7283.6" y="-2221.3"/><use xlink:href="#F0jviFCZ1X6t_pad-4" x="6319" y="-2221.3"/><use xlink:href="#F0jviFCZ1X6t_pad-4" x="6419" y="-2221.3"/><use xlink:href="#F0jviFCZ1X6t_pad-4" x="6895.4" y="-2221.3"/><use xlink:href="#F0jviFCZ1X6t_pad-4" x="6995.4" y="-2221.3"/><use xlink:href="#F0jviFCZ1X6t_pad-4" x="6607.2" y="-2221.3"/><use xlink:href="#F0jviFCZ1X6t_pad-4" x="6707.2" y="-2221.3"/><use xlink:href="#F0jviFCZ1X6t_pad-5" x="7392.5" y="-4280.2"/><use xlink:href="#F0jviFCZ1X6t_pad-5" x="7510.7" y="-4280.2"/><use xlink:href="#F0jviFCZ1X6t_pad-5" x="6081.3" y="-4280.2"/><use xlink:href="#F0jviFCZ1X6t_pad-5" x="6199.5" y="-4280.2"/><use xlink:href="#F0jviFCZ1X6t_pad-6" x="7083.2" y="-4470"/><use xlink:href="#F0jviFCZ1X6t_pad-6" x="5990" y="-2540"/><use xlink:href="#F0jviFCZ1X6t_pad-6" x="6140.4" y="-3850"/><use xlink:href="#F0jviFCZ1X6t_pad-6" x="7620" y="-2540"/><use xlink:href="#F0jviFCZ1X6t_pad-6" x="6521" y="-4470"/><use xlink:href="#F0jviFCZ1X6t_pad-6" x="7451.6" y="-3850"/></g><clipPath id="MsLDIIUkvrVw_bottom_outline"><path d="M 196850 -50800 148590 -50800 A 1270 1270 0 0 1 147320 -52070 L 147320 -125730 A 1270 1270 0 0 1 148590 -127000 L 196850 -127000 A 1270 1270 0 0 1 198120 -125730 L 198120 -52070 A 1270 1270 0 0 1 196850 -50800" fill="none" stroke-width="50"/></clipPath><mask id="MsLDIIUkvrVw_bottom_mech-mask"><g fill="#000" stroke="#000"><rect x="147320" y="-127000" width="50800" height="76200" fill="#fff"/><use xlink:href="#MsLDIIUkvrVw_bottom_drill1"/><use xlink:href="#MsLDIIUkvrVw_bottom_drill2"/></g></mask><mask id="MsLDIIUkvrVw_bottom_cf-mask"><g fill="#fff" stroke="#fff"><use xlink:href="#MsLDIIUkvrVw_bottom_soldermask"/></g></mask><mask id="MsLDIIUkvrVw_bottom_sm-mask"><g fill="#000" stroke="#000"><rect x="147320" y="-127000" width="50800" height="76200" fill="#fff"/><use xlink:href="#MsLDIIUkvrVw_bottom_soldermask"/></g></mask></defs><g transform="translate(0,-177800) scale(1,-1)"><g mask="url(#MsLDIIUkvrVw_bottom_mech-mask)" clip-path="url(#MsLDIIUkvrVw_bottom_outline)" transform="translate(345440,0) scale(-1,1)"><rect x="147320" y="-127000" width="50800" height="76200" fill="currentColor" class="MsLDIIUkvrVw_fr4"/><use xlink:href="#MsLDIIUkvrVw_bottom_copper" fill="currentColor" stroke="currentColor" class="MsLDIIUkvrVw_cu"/><use xlink:href="#MsLDIIUkvrVw_bottom_copper" fill="currentColor" stroke="currentColor" class="MsLDIIUkvrVw_cf" mask="url(#MsLDIIUkvrVw_bottom_cf-mask)"/><g mask="url(#MsLDIIUkvrVw_bottom_sm-mask)"><rect x="147320" y="-127000" width="50800" height="76200" fill="currentColor" class="MsLDIIUkvrVw_sm"/></g></g></g></svg>