M48
; DRILL file {KiCad (5.1.7)-1} date 11/02/21 09:12:19
; FORMAT={-:-/ absolute / inch / decimal}
; #@! TF.CreationDate,2021-11-02T09:12:19-05:00
; #@! TF.GenerationSoftware,Kicad,Pcbnew,(5.1.7)-1
; #@! TF.FileFunction,Plated,1,2,PTH
FMAT,2
INCH
T1C0.0157
T2C0.0276
T3C0.0315
T4C0.0469
T5C0.0472
T6C0.0787
%
G90
G05
T1
X6.19Y-3.1
X6.2322Y-2.7423
X6.2322Y-3.4343
X6.4595Y-3.6296
X6.4595Y-4.061
X6.46Y-3.415
X6.58Y-3.63
X7.0222Y-3.415
X7.1442Y-3.415
X7.1447Y-4.061
X7.53Y-3.11
X7.5674Y-2.7423
T2
X6.7021Y-3.12
X6.8021Y-3.12
X6.9021Y-3.12
T3
X6.7645Y-2.605
X6.8432Y-2.605
T4
X7.1836Y-2.2213
X7.2836Y-2.2213
X6.319Y-2.2213
X6.419Y-2.2213
X6.8954Y-2.2213
X6.9954Y-2.2213
X6.6072Y-2.2213
X6.7072Y-2.2213
T5
X7.3925Y-4.2802
X7.5107Y-4.2802
X6.0813Y-4.2802
X6.1995Y-4.2802
T6
X7.0832Y-4.47
X5.99Y-2.54
X6.1404Y-3.85
X7.62Y-2.54
X6.521Y-4.47
X7.4516Y-3.85
T0
M30
