%TF.GenerationSoftware,KiCad,Pcbnew,(5.1.7)-1*%
%TF.CreationDate,2021-11-02T09:12:16-05:00*%
%TF.ProjectId,Wisconsin Oscillator,57697363-6f6e-4736-996e-204f7363696c,rev?*%
%TF.SameCoordinates,Original*%
%TF.FileFunction,Soldermask,Bot*%
%TF.FilePolarity,Negative*%
%FSLAX46Y46*%
G04 Gerber Fmt 4.6, Leading zero omitted, Abs format (unit mm)*
G04 Created by KiCad (PCBNEW (5.1.7)-1) date 2021-11-02 09:12:16*
%MOMM*%
%LPD*%
G01*
G04 APERTURE LIST*
%ADD10C,4.000000*%
%ADD11C,3.200000*%
%ADD12C,1.300000*%
%ADD13R,1.300000X1.300000*%
%ADD14C,1.600000*%
%ADD15R,1.600000X1.600000*%
%ADD16O,1.740000X2.190000*%
%ADD17C,2.400000*%
G04 APERTURE END LIST*
D10*
%TO.C,TP6*%
X193548000Y-64516000D03*
%TD*%
%TO.C,TP5*%
X179913280Y-113538000D03*
%TD*%
%TO.C,TP4*%
X189270640Y-97790000D03*
%TD*%
%TO.C,TP3*%
X165633400Y-113538000D03*
%TD*%
%TO.C,TP2*%
X155966160Y-97790000D03*
%TD*%
%TO.C,TP1*%
X152146000Y-64516000D03*
%TD*%
D11*
%TO.C,MH4*%
X194310000Y-123190000D03*
%TD*%
%TO.C,MH3*%
X151130000Y-123190000D03*
%TD*%
%TO.C,MH2*%
X151130000Y-54610000D03*
%TD*%
%TO.C,MH1*%
X194310000Y-54610000D03*
%TD*%
D12*
%TO.C,U5*%
X172773340Y-79248000D03*
X170233340Y-79248000D03*
D13*
X175313340Y-79248000D03*
%TD*%
D14*
%TO.C,C6*%
X173818228Y-66167000D03*
D15*
X171818228Y-66167000D03*
%TD*%
D16*
%TO.C,J1*%
X163042600Y-56420560D03*
G36*
G01*
X159632600Y-57265561D02*
X159632600Y-55575559D01*
G75*
G02*
X159882599Y-55325560I249999J0D01*
G01*
X161122601Y-55325560D01*
G75*
G02*
X161372600Y-55575559I0J-249999D01*
G01*
X161372600Y-57265561D01*
G75*
G02*
X161122601Y-57515560I-249999J0D01*
G01*
X159882599Y-57515560D01*
G75*
G02*
X159632600Y-57265561I0J249999D01*
G01*
G37*
%TD*%
%TO.C,J2*%
X170362880Y-56420560D03*
G36*
G01*
X166952880Y-57265561D02*
X166952880Y-55575559D01*
G75*
G02*
X167202879Y-55325560I249999J0D01*
G01*
X168442881Y-55325560D01*
G75*
G02*
X168692880Y-55575559I0J-249999D01*
G01*
X168692880Y-57265561D01*
G75*
G02*
X168442881Y-57515560I-249999J0D01*
G01*
X167202879Y-57515560D01*
G75*
G02*
X166952880Y-57265561I0J249999D01*
G01*
G37*
%TD*%
%TO.C,J3*%
X177683160Y-56420560D03*
G36*
G01*
X174273160Y-57265561D02*
X174273160Y-55575559D01*
G75*
G02*
X174523159Y-55325560I249999J0D01*
G01*
X175763161Y-55325560D01*
G75*
G02*
X176013160Y-55575559I0J-249999D01*
G01*
X176013160Y-57265561D01*
G75*
G02*
X175763161Y-57515560I-249999J0D01*
G01*
X174523159Y-57515560D01*
G75*
G02*
X174273160Y-57265561I0J249999D01*
G01*
G37*
%TD*%
D17*
%TO.C,L2*%
X187770640Y-108717080D03*
X190770640Y-108717080D03*
%TD*%
%TO.C,L1*%
X157466160Y-108717080D03*
X154466160Y-108717080D03*
%TD*%
D16*
%TO.C,J4*%
X185003440Y-56420560D03*
G36*
G01*
X181593440Y-57265561D02*
X181593440Y-55575559D01*
G75*
G02*
X181843439Y-55325560I249999J0D01*
G01*
X183083441Y-55325560D01*
G75*
G02*
X183333440Y-55575559I0J-249999D01*
G01*
X183333440Y-57265561D01*
G75*
G02*
X183083441Y-57515560I-249999J0D01*
G01*
X181843439Y-57515560D01*
G75*
G02*
X181593440Y-57265561I0J249999D01*
G01*
G37*
%TD*%
M02*
