%TF.GenerationSoftware,KiCad,Pcbnew,(5.1.7)-1*%
%TF.CreationDate,2021-11-02T09:12:16-05:00*%
%TF.ProjectId,Wisconsin Oscillator,57697363-6f6e-4736-996e-204f7363696c,rev?*%
%TF.SameCoordinates,Original*%
%TF.FileFunction,Copper,L2,Bot*%
%TF.FilePolarity,Positive*%
%FSLAX46Y46*%
G04 Gerber Fmt 4.6, Leading zero omitted, Abs format (unit mm)*
G04 Created by KiCad (PCBNEW (5.1.7)-1) date 2021-11-02 09:12:16*
%MOMM*%
%LPD*%
G01*
G04 APERTURE LIST*
%TA.AperFunction,ComponentPad*%
%ADD10C,4.000000*%
%TD*%
%TA.AperFunction,ComponentPad*%
%ADD11C,1.300000*%
%TD*%
%TA.AperFunction,ComponentPad*%
%ADD12R,1.300000X1.300000*%
%TD*%
%TA.AperFunction,ComponentPad*%
%ADD13C,1.600000*%
%TD*%
%TA.AperFunction,ComponentPad*%
%ADD14R,1.600000X1.600000*%
%TD*%
%TA.AperFunction,ComponentPad*%
%ADD15O,1.740000X2.190000*%
%TD*%
%TA.AperFunction,ComponentPad*%
%ADD16C,2.400000*%
%TD*%
%TA.AperFunction,ViaPad*%
%ADD17C,0.800000*%
%TD*%
%TA.AperFunction,Conductor*%
%ADD18C,0.500000*%
%TD*%
%TA.AperFunction,Conductor*%
%ADD19C,1.000000*%
%TD*%
%TA.AperFunction,Conductor*%
%ADD20C,0.254000*%
%TD*%
%TA.AperFunction,Conductor*%
%ADD21C,0.100000*%
%TD*%
G04 APERTURE END LIST*
D10*
%TO.P,TP6,1*%
%TO.N,Net-(C6-Pad1)*%
X193548000Y-64516000D03*
%TD*%
%TO.P,TP5,1*%
%TO.N,Net-(C5-Pad2)*%
X179913280Y-113538000D03*
%TD*%
%TO.P,TP4,1*%
%TO.N,Net-(L2-Pad1)*%
X189270640Y-97790000D03*
%TD*%
%TO.P,TP3,1*%
%TO.N,Net-(C4-Pad1)*%
X165633400Y-113538000D03*
%TD*%
%TO.P,TP2,1*%
%TO.N,Net-(L1-Pad1)*%
X155966160Y-97790000D03*
%TD*%
%TO.P,TP1,1*%
%TO.N,Net-(C2-Pad1)*%
X152146000Y-64516000D03*
%TD*%
D11*
%TO.P,U5,2*%
%TO.N,Earth*%
X172773340Y-79248000D03*
%TO.P,U5,3*%
%TO.N,Net-(C6-Pad1)*%
X170233340Y-79248000D03*
D12*
%TO.P,U5,1*%
%TO.N,Net-(C7-Pad1)*%
X175313340Y-79248000D03*
%TD*%
D13*
%TO.P,C6,2*%
%TO.N,Earth*%
X173818228Y-66167000D03*
D14*
%TO.P,C6,1*%
%TO.N,Net-(C6-Pad1)*%
X171818228Y-66167000D03*
%TD*%
D15*
%TO.P,J1,2*%
%TO.N,Net-(C4-Pad1)*%
X163042600Y-56420560D03*
%TO.P,J1,1*%
%TO.N,Earth*%
%TA.AperFunction,ComponentPad*%
G36*
G01*
X159632600Y-57265561D02*
X159632600Y-55575559D01*
G75*
G02*
X159882599Y-55325560I249999J0D01*
G01*
X161122601Y-55325560D01*
G75*
G02*
X161372600Y-55575559I0J-249999D01*
G01*
X161372600Y-57265561D01*
G75*
G02*
X161122601Y-57515560I-249999J0D01*
G01*
X159882599Y-57515560D01*
G75*
G02*
X159632600Y-57265561I0J249999D01*
G01*
G37*
%TD.AperFunction*%
%TD*%
%TO.P,J2,2*%
%TO.N,Net-(C5-Pad2)*%
X170362880Y-56420560D03*
%TO.P,J2,1*%
%TO.N,Earth*%
%TA.AperFunction,ComponentPad*%
G36*
G01*
X166952880Y-57265561D02*
X166952880Y-55575559D01*
G75*
G02*
X167202879Y-55325560I249999J0D01*
G01*
X168442881Y-55325560D01*
G75*
G02*
X168692880Y-55575559I0J-249999D01*
G01*
X168692880Y-57265561D01*
G75*
G02*
X168442881Y-57515560I-249999J0D01*
G01*
X167202879Y-57515560D01*
G75*
G02*
X166952880Y-57265561I0J249999D01*
G01*
G37*
%TD.AperFunction*%
%TD*%
%TO.P,J3,2*%
%TO.N,Net-(J3-Pad2)*%
X177683160Y-56420560D03*
%TO.P,J3,1*%
%TO.N,Earth*%
%TA.AperFunction,ComponentPad*%
G36*
G01*
X174273160Y-57265561D02*
X174273160Y-55575559D01*
G75*
G02*
X174523159Y-55325560I249999J0D01*
G01*
X175763161Y-55325560D01*
G75*
G02*
X176013160Y-55575559I0J-249999D01*
G01*
X176013160Y-57265561D01*
G75*
G02*
X175763161Y-57515560I-249999J0D01*
G01*
X174523159Y-57515560D01*
G75*
G02*
X174273160Y-57265561I0J249999D01*
G01*
G37*
%TD.AperFunction*%
%TD*%
D16*
%TO.P,L2,2*%
%TO.N,Net-(C1-Pad2)*%
X187770640Y-108717080D03*
%TO.P,L2,1*%
%TO.N,Net-(L2-Pad1)*%
X190770640Y-108717080D03*
%TD*%
%TO.P,L1,2*%
%TO.N,Net-(C1-Pad1)*%
X157466160Y-108717080D03*
%TO.P,L1,1*%
%TO.N,Net-(L1-Pad1)*%
X154466160Y-108717080D03*
%TD*%
D15*
%TO.P,J4,2*%
%TO.N,Net-(C7-Pad1)*%
X185003440Y-56420560D03*
%TO.P,J4,1*%
%TO.N,Earth*%
%TA.AperFunction,ComponentPad*%
G36*
G01*
X181593440Y-57265561D02*
X181593440Y-55575559D01*
G75*
G02*
X181843439Y-55325560I249999J0D01*
G01*
X183083441Y-55325560D01*
G75*
G02*
X183333440Y-55575559I0J-249999D01*
G01*
X183333440Y-57265561D01*
G75*
G02*
X183083441Y-57515560I-249999J0D01*
G01*
X181843439Y-57515560D01*
G75*
G02*
X181593440Y-57265561I0J249999D01*
G01*
G37*
%TD.AperFunction*%
%TD*%
D17*
%TO.N,Net-(C2-Pad1)*%
X164070900Y-92192966D03*
%TO.N,Net-(C4-Pad1)*%
X164083400Y-86741000D03*
X164070900Y-103149400D03*
%TO.N,Net-(R1-Pad1)*%
X167132000Y-92202000D03*
X158298000Y-87230000D03*
%TO.N,Net-(C6-Pad1)*%
X157226000Y-78740000D03*
X158298000Y-69654000D03*
X191262000Y-78994000D03*
X192213000Y-69654000D03*
%TO.N,Net-(C5-Pad2)*%
X181475780Y-103149400D03*
X181463280Y-86741000D03*
%TO.N,Net-(J3-Pad2)*%
X178363280Y-86741000D03*
%TD*%
D18*
%TO.N,Net-(C2-Pad1)*%
X152146000Y-82336002D02*
X152146000Y-64516000D01*
X162002964Y-92192966D02*
X152146000Y-82336002D01*
X164070900Y-92192966D02*
X162002964Y-92192966D01*
%TO.N,Net-(C4-Pad1)*%
X163042600Y-56420560D02*
X163042600Y-85700200D01*
X163042600Y-85700200D02*
X164083400Y-86741000D01*
X165633400Y-104711900D02*
X164070900Y-103149400D01*
X165633400Y-113538000D02*
X165633400Y-104711900D01*
%TO.N,Net-(R1-Pad1)*%
X162160000Y-87230000D02*
X158298000Y-87230000D01*
X167132000Y-92202000D02*
X162160000Y-87230000D01*
%TO.N,Net-(C6-Pad1)*%
X158298000Y-77668000D02*
X158298000Y-69654000D01*
X157226000Y-78740000D02*
X158298000Y-77668000D01*
X192213000Y-78043000D02*
X192213000Y-69654000D01*
X191262000Y-78994000D02*
X192213000Y-78043000D01*
D19*
X171818228Y-66387002D02*
X171818228Y-66167000D01*
X173098227Y-67667001D02*
X171818228Y-66387002D01*
X190396999Y-67667001D02*
X173098227Y-67667001D01*
X193548000Y-64516000D02*
X190396999Y-67667001D01*
D18*
%TO.N,Net-(C5-Pad2)*%
X179913280Y-104711900D02*
X181475780Y-103149400D01*
X179913280Y-113538000D02*
X179913280Y-104711900D01*
X177955279Y-87591001D02*
X180613279Y-87591001D01*
X180613279Y-87591001D02*
X181463280Y-86741000D01*
X177513279Y-87149001D02*
X177955279Y-87591001D01*
X177513279Y-75262016D02*
X177513279Y-87149001D01*
X169868217Y-67616954D02*
X177513279Y-75262016D01*
X169868217Y-56915223D02*
X169868217Y-67616954D01*
X170362880Y-56420560D02*
X169868217Y-56915223D01*
%TO.N,Net-(J3-Pad2)*%
X178363280Y-75122054D02*
X178363280Y-86741000D01*
X170568227Y-67327001D02*
X178363280Y-75122054D01*
X170568227Y-63535493D02*
X170568227Y-67327001D01*
X177683160Y-56420560D02*
X170568227Y-63535493D01*
%TD*%
D20*
%TO.N,Earth*%
X196967869Y-51474722D02*
X197081246Y-51508953D01*
X197185819Y-51564555D01*
X197277596Y-51639407D01*
X197353091Y-51730664D01*
X197409419Y-51834844D01*
X197444440Y-51947976D01*
X197460001Y-52096031D01*
X197460000Y-125697721D01*
X197445278Y-125847869D01*
X197411047Y-125961246D01*
X197355446Y-126065817D01*
X197280594Y-126157595D01*
X197189335Y-126233091D01*
X197085160Y-126289419D01*
X196972024Y-126324440D01*
X196823979Y-126340000D01*
X148622279Y-126340000D01*
X148472131Y-126325278D01*
X148358754Y-126291047D01*
X148254183Y-126235446D01*
X148162405Y-126160594D01*
X148086909Y-126069335D01*
X148030581Y-125965160D01*
X147995560Y-125852024D01*
X147980000Y-125703979D01*
X147980000Y-122969872D01*
X148895000Y-122969872D01*
X148895000Y-123410128D01*
X148980890Y-123841925D01*
X149149369Y-124248669D01*
X149393962Y-124614729D01*
X149705271Y-124926038D01*
X150071331Y-125170631D01*
X150478075Y-125339110D01*
X150909872Y-125425000D01*
X151350128Y-125425000D01*
X151781925Y-125339110D01*
X152188669Y-125170631D01*
X152554729Y-124926038D01*
X152866038Y-124614729D01*
X153110631Y-124248669D01*
X153279110Y-123841925D01*
X153365000Y-123410128D01*
X153365000Y-122969872D01*
X192075000Y-122969872D01*
X192075000Y-123410128D01*
X192160890Y-123841925D01*
X192329369Y-124248669D01*
X192573962Y-124614729D01*
X192885271Y-124926038D01*
X193251331Y-125170631D01*
X193658075Y-125339110D01*
X194089872Y-125425000D01*
X194530128Y-125425000D01*
X194961925Y-125339110D01*
X195368669Y-125170631D01*
X195734729Y-124926038D01*
X196046038Y-124614729D01*
X196290631Y-124248669D01*
X196459110Y-123841925D01*
X196545000Y-123410128D01*
X196545000Y-122969872D01*
X196459110Y-122538075D01*
X196290631Y-122131331D01*
X196046038Y-121765271D01*
X195734729Y-121453962D01*
X195368669Y-121209369D01*
X194961925Y-121040890D01*
X194530128Y-120955000D01*
X194089872Y-120955000D01*
X193658075Y-121040890D01*
X193251331Y-121209369D01*
X192885271Y-121453962D01*
X192573962Y-121765271D01*
X192329369Y-122131331D01*
X192160890Y-122538075D01*
X192075000Y-122969872D01*
X153365000Y-122969872D01*
X153279110Y-122538075D01*
X153110631Y-122131331D01*
X152866038Y-121765271D01*
X152554729Y-121453962D01*
X152188669Y-121209369D01*
X151781925Y-121040890D01*
X151350128Y-120955000D01*
X150909872Y-120955000D01*
X150478075Y-121040890D01*
X150071331Y-121209369D01*
X149705271Y-121453962D01*
X149393962Y-121765271D01*
X149149369Y-122131331D01*
X148980890Y-122538075D01*
X148895000Y-122969872D01*
X147980000Y-122969872D01*
X147980000Y-113278475D01*
X162998400Y-113278475D01*
X162998400Y-113797525D01*
X163099661Y-114306601D01*
X163298293Y-114786141D01*
X163586662Y-115217715D01*
X163953685Y-115584738D01*
X164385259Y-115873107D01*
X164864799Y-116071739D01*
X165373875Y-116173000D01*
X165892925Y-116173000D01*
X166402001Y-116071739D01*
X166881541Y-115873107D01*
X167313115Y-115584738D01*
X167680138Y-115217715D01*
X167968507Y-114786141D01*
X168167139Y-114306601D01*
X168268400Y-113797525D01*
X168268400Y-113278475D01*
X177278280Y-113278475D01*
X177278280Y-113797525D01*
X177379541Y-114306601D01*
X177578173Y-114786141D01*
X177866542Y-115217715D01*
X178233565Y-115584738D01*
X178665139Y-115873107D01*
X179144679Y-116071739D01*
X179653755Y-116173000D01*
X180172805Y-116173000D01*
X180681881Y-116071739D01*
X181161421Y-115873107D01*
X181592995Y-115584738D01*
X181960018Y-115217715D01*
X182248387Y-114786141D01*
X182447019Y-114306601D01*
X182548280Y-113797525D01*
X182548280Y-113278475D01*
X182447019Y-112769399D01*
X182248387Y-112289859D01*
X181960018Y-111858285D01*
X181592995Y-111491262D01*
X181161421Y-111202893D01*
X180798280Y-111052475D01*
X180798280Y-108536348D01*
X185935640Y-108536348D01*
X185935640Y-108897812D01*
X186006158Y-109252330D01*
X186144484Y-109586279D01*
X186345302Y-109886824D01*
X186600896Y-110142418D01*
X186901441Y-110343236D01*
X187235390Y-110481562D01*
X187589908Y-110552080D01*
X187951372Y-110552080D01*
X188305890Y-110481562D01*
X188639839Y-110343236D01*
X188940384Y-110142418D01*
X189195978Y-109886824D01*
X189270640Y-109775085D01*
X189345302Y-109886824D01*
X189600896Y-110142418D01*
X189901441Y-110343236D01*
X190235390Y-110481562D01*
X190589908Y-110552080D01*
X190951372Y-110552080D01*
X191305890Y-110481562D01*
X191639839Y-110343236D01*
X191940384Y-110142418D01*
X192195978Y-109886824D01*
X192396796Y-109586279D01*
X192535122Y-109252330D01*
X192605640Y-108897812D01*
X192605640Y-108536348D01*
X192535122Y-108181830D01*
X192396796Y-107847881D01*
X192195978Y-107547336D01*
X191940384Y-107291742D01*
X191639839Y-107090924D01*
X191305890Y-106952598D01*
X190951372Y-106882080D01*
X190589908Y-106882080D01*
X190235390Y-106952598D01*
X189901441Y-107090924D01*
X189600896Y-107291742D01*
X189345302Y-107547336D01*
X189270640Y-107659075D01*
X189195978Y-107547336D01*
X188940384Y-107291742D01*
X188639839Y-107090924D01*
X188305890Y-106952598D01*
X187951372Y-106882080D01*
X187589908Y-106882080D01*
X187235390Y-106952598D01*
X186901441Y-107090924D01*
X186600896Y-107291742D01*
X186345302Y-107547336D01*
X186144484Y-107847881D01*
X186006158Y-108181830D01*
X185935640Y-108536348D01*
X180798280Y-108536348D01*
X180798280Y-105078478D01*
X181720824Y-104155935D01*
X181777678Y-104144626D01*
X181966036Y-104066605D01*
X182135554Y-103953337D01*
X182279717Y-103809174D01*
X182392985Y-103639656D01*
X182471006Y-103451298D01*
X182510780Y-103251339D01*
X182510780Y-103047461D01*
X182471006Y-102847502D01*
X182392985Y-102659144D01*
X182279717Y-102489626D01*
X182135554Y-102345463D01*
X181966036Y-102232195D01*
X181777678Y-102154174D01*
X181577719Y-102114400D01*
X181373841Y-102114400D01*
X181173882Y-102154174D01*
X180985524Y-102232195D01*
X180816006Y-102345463D01*
X180671843Y-102489626D01*
X180558575Y-102659144D01*
X180480554Y-102847502D01*
X180469245Y-102904356D01*
X179318231Y-104055371D01*
X179284464Y-104083083D01*
X179256751Y-104116851D01*
X179256748Y-104116854D01*
X179173870Y-104217841D01*
X179091692Y-104371587D01*
X179041085Y-104538410D01*
X179023999Y-104711900D01*
X179028281Y-104755379D01*
X179028280Y-111052475D01*
X178665139Y-111202893D01*
X178233565Y-111491262D01*
X177866542Y-111858285D01*
X177578173Y-112289859D01*
X177379541Y-112769399D01*
X177278280Y-113278475D01*
X168268400Y-113278475D01*
X168167139Y-112769399D01*
X167968507Y-112289859D01*
X167680138Y-111858285D01*
X167313115Y-111491262D01*
X166881541Y-111202893D01*
X166518400Y-111052475D01*
X166518400Y-104755369D01*
X166522681Y-104711900D01*
X166518400Y-104668431D01*
X166518400Y-104668423D01*
X166505595Y-104538410D01*
X166454989Y-104371587D01*
X166454989Y-104371586D01*
X166372811Y-104217841D01*
X166289932Y-104116853D01*
X166289930Y-104116851D01*
X166262217Y-104083083D01*
X166228449Y-104055370D01*
X165077435Y-102904357D01*
X165066126Y-102847502D01*
X164988105Y-102659144D01*
X164874837Y-102489626D01*
X164730674Y-102345463D01*
X164561156Y-102232195D01*
X164372798Y-102154174D01*
X164172839Y-102114400D01*
X163968961Y-102114400D01*
X163769002Y-102154174D01*
X163580644Y-102232195D01*
X163411126Y-102345463D01*
X163266963Y-102489626D01*
X163153695Y-102659144D01*
X163075674Y-102847502D01*
X163035900Y-103047461D01*
X163035900Y-103251339D01*
X163075674Y-103451298D01*
X163153695Y-103639656D01*
X163266963Y-103809174D01*
X163411126Y-103953337D01*
X163580644Y-104066605D01*
X163769002Y-104144626D01*
X163825857Y-104155935D01*
X164748401Y-105078480D01*
X164748400Y-111052475D01*
X164385259Y-111202893D01*
X163953685Y-111491262D01*
X163586662Y-111858285D01*
X163298293Y-112289859D01*
X163099661Y-112769399D01*
X162998400Y-113278475D01*
X147980000Y-113278475D01*
X147980000Y-108536348D01*
X152631160Y-108536348D01*
X152631160Y-108897812D01*
X152701678Y-109252330D01*
X152840004Y-109586279D01*
X153040822Y-109886824D01*
X153296416Y-110142418D01*
X153596961Y-110343236D01*
X153930910Y-110481562D01*
X154285428Y-110552080D01*
X154646892Y-110552080D01*
X155001410Y-110481562D01*
X155335359Y-110343236D01*
X155635904Y-110142418D01*
X155891498Y-109886824D01*
X155966160Y-109775085D01*
X156040822Y-109886824D01*
X156296416Y-110142418D01*
X156596961Y-110343236D01*
X156930910Y-110481562D01*
X157285428Y-110552080D01*
X157646892Y-110552080D01*
X158001410Y-110481562D01*
X158335359Y-110343236D01*
X158635904Y-110142418D01*
X158891498Y-109886824D01*
X159092316Y-109586279D01*
X159230642Y-109252330D01*
X159301160Y-108897812D01*
X159301160Y-108536348D01*
X159230642Y-108181830D01*
X159092316Y-107847881D01*
X158891498Y-107547336D01*
X158635904Y-107291742D01*
X158335359Y-107090924D01*
X158001410Y-106952598D01*
X157646892Y-106882080D01*
X157285428Y-106882080D01*
X156930910Y-106952598D01*
X156596961Y-107090924D01*
X156296416Y-107291742D01*
X156040822Y-107547336D01*
X155966160Y-107659075D01*
X155891498Y-107547336D01*
X155635904Y-107291742D01*
X155335359Y-107090924D01*
X155001410Y-106952598D01*
X154646892Y-106882080D01*
X154285428Y-106882080D01*
X153930910Y-106952598D01*
X153596961Y-107090924D01*
X153296416Y-107291742D01*
X153040822Y-107547336D01*
X152840004Y-107847881D01*
X152701678Y-108181830D01*
X152631160Y-108536348D01*
X147980000Y-108536348D01*
X147980000Y-97530475D01*
X153331160Y-97530475D01*
X153331160Y-98049525D01*
X153432421Y-98558601D01*
X153631053Y-99038141D01*
X153919422Y-99469715D01*
X154286445Y-99836738D01*
X154718019Y-100125107D01*
X155197559Y-100323739D01*
X155706635Y-100425000D01*
X156225685Y-100425000D01*
X156734761Y-100323739D01*
X157214301Y-100125107D01*
X157645875Y-99836738D01*
X158012898Y-99469715D01*
X158301267Y-99038141D01*
X158499899Y-98558601D01*
X158601160Y-98049525D01*
X158601160Y-97530475D01*
X186635640Y-97530475D01*
X186635640Y-98049525D01*
X186736901Y-98558601D01*
X186935533Y-99038141D01*
X187223902Y-99469715D01*
X187590925Y-99836738D01*
X188022499Y-100125107D01*
X188502039Y-100323739D01*
X189011115Y-100425000D01*
X189530165Y-100425000D01*
X190039241Y-100323739D01*
X190518781Y-100125107D01*
X190950355Y-99836738D01*
X191317378Y-99469715D01*
X191605747Y-99038141D01*
X191804379Y-98558601D01*
X191905640Y-98049525D01*
X191905640Y-97530475D01*
X191804379Y-97021399D01*
X191605747Y-96541859D01*
X191317378Y-96110285D01*
X190950355Y-95743262D01*
X190518781Y-95454893D01*
X190039241Y-95256261D01*
X189530165Y-95155000D01*
X189011115Y-95155000D01*
X188502039Y-95256261D01*
X188022499Y-95454893D01*
X187590925Y-95743262D01*
X187223902Y-96110285D01*
X186935533Y-96541859D01*
X186736901Y-97021399D01*
X186635640Y-97530475D01*
X158601160Y-97530475D01*
X158499899Y-97021399D01*
X158301267Y-96541859D01*
X158012898Y-96110285D01*
X157645875Y-95743262D01*
X157214301Y-95454893D01*
X156734761Y-95256261D01*
X156225685Y-95155000D01*
X155706635Y-95155000D01*
X155197559Y-95256261D01*
X154718019Y-95454893D01*
X154286445Y-95743262D01*
X153919422Y-96110285D01*
X153631053Y-96541859D01*
X153432421Y-97021399D01*
X153331160Y-97530475D01*
X147980000Y-97530475D01*
X147980000Y-64256475D01*
X149511000Y-64256475D01*
X149511000Y-64775525D01*
X149612261Y-65284601D01*
X149810893Y-65764141D01*
X150099262Y-66195715D01*
X150466285Y-66562738D01*
X150897859Y-66851107D01*
X151261001Y-67001525D01*
X151261000Y-82292533D01*
X151256719Y-82336002D01*
X151261000Y-82379471D01*
X151261000Y-82379478D01*
X151273805Y-82509491D01*
X151324411Y-82676314D01*
X151406589Y-82830060D01*
X151517183Y-82964819D01*
X151550956Y-82992536D01*
X161346434Y-92788015D01*
X161374147Y-92821783D01*
X161407915Y-92849496D01*
X161407917Y-92849498D01*
X161479416Y-92908176D01*
X161508905Y-92932377D01*
X161662651Y-93014555D01*
X161829474Y-93065161D01*
X161959487Y-93077966D01*
X161959497Y-93077966D01*
X162002963Y-93082247D01*
X162046429Y-93077966D01*
X163532446Y-93077966D01*
X163580644Y-93110171D01*
X163769002Y-93188192D01*
X163968961Y-93227966D01*
X164172839Y-93227966D01*
X164372798Y-93188192D01*
X164561156Y-93110171D01*
X164730674Y-92996903D01*
X164874837Y-92852740D01*
X164988105Y-92683222D01*
X165066126Y-92494864D01*
X165105900Y-92294905D01*
X165105900Y-92091027D01*
X165066126Y-91891068D01*
X164988105Y-91702710D01*
X164874837Y-91533192D01*
X164730674Y-91389029D01*
X164561156Y-91275761D01*
X164372798Y-91197740D01*
X164172839Y-91157966D01*
X163968961Y-91157966D01*
X163769002Y-91197740D01*
X163580644Y-91275761D01*
X163532446Y-91307966D01*
X162369543Y-91307966D01*
X159176577Y-88115000D01*
X161793422Y-88115000D01*
X166125465Y-92447044D01*
X166136774Y-92503898D01*
X166214795Y-92692256D01*
X166328063Y-92861774D01*
X166472226Y-93005937D01*
X166641744Y-93119205D01*
X166830102Y-93197226D01*
X167030061Y-93237000D01*
X167233939Y-93237000D01*
X167433898Y-93197226D01*
X167622256Y-93119205D01*
X167791774Y-93005937D01*
X167935937Y-92861774D01*
X168049205Y-92692256D01*
X168127226Y-92503898D01*
X168167000Y-92303939D01*
X168167000Y-92100061D01*
X168127226Y-91900102D01*
X168049205Y-91711744D01*
X167935937Y-91542226D01*
X167791774Y-91398063D01*
X167622256Y-91284795D01*
X167433898Y-91206774D01*
X167377044Y-91195465D01*
X163951648Y-87770070D01*
X163981461Y-87776000D01*
X164185339Y-87776000D01*
X164385298Y-87736226D01*
X164573656Y-87658205D01*
X164743174Y-87544937D01*
X164887337Y-87400774D01*
X165000605Y-87231256D01*
X165078626Y-87042898D01*
X165118400Y-86842939D01*
X165118400Y-86639061D01*
X165078626Y-86439102D01*
X165000605Y-86250744D01*
X164887337Y-86081226D01*
X164743174Y-85937063D01*
X164573656Y-85823795D01*
X164385298Y-85745774D01*
X164328444Y-85734465D01*
X163927600Y-85333622D01*
X163927600Y-79121439D01*
X168948340Y-79121439D01*
X168948340Y-79374561D01*
X168997721Y-79622821D01*
X169094587Y-79856676D01*
X169235215Y-80067140D01*
X169414200Y-80246125D01*
X169624664Y-80386753D01*
X169858519Y-80483619D01*
X170106779Y-80533000D01*
X170359901Y-80533000D01*
X170608161Y-80483619D01*
X170842016Y-80386753D01*
X171052480Y-80246125D01*
X171165078Y-80133527D01*
X172067418Y-80133527D01*
X172120806Y-80362201D01*
X172350714Y-80468095D01*
X172596864Y-80527102D01*
X172849795Y-80536952D01*
X173099789Y-80497270D01*
X173337236Y-80409578D01*
X173425874Y-80362201D01*
X173479262Y-80133527D01*
X172773340Y-79427605D01*
X172067418Y-80133527D01*
X171165078Y-80133527D01*
X171231465Y-80067140D01*
X171372093Y-79856676D01*
X171468959Y-79622821D01*
X171503880Y-79447256D01*
X171524070Y-79574449D01*
X171611762Y-79811896D01*
X171659139Y-79900534D01*
X171887813Y-79953922D01*
X172593735Y-79248000D01*
X172952945Y-79248000D01*
X173658867Y-79953922D01*
X173887541Y-79900534D01*
X173993435Y-79670626D01*
X174025268Y-79537833D01*
X174025268Y-79898000D01*
X174037528Y-80022482D01*
X174073838Y-80142180D01*
X174132803Y-80252494D01*
X174212155Y-80349185D01*
X174308846Y-80428537D01*
X174419160Y-80487502D01*
X174538858Y-80523812D01*
X174663340Y-80536072D01*
X175963340Y-80536072D01*
X176087822Y-80523812D01*
X176207520Y-80487502D01*
X176317834Y-80428537D01*
X176414525Y-80349185D01*
X176493877Y-80252494D01*
X176552842Y-80142180D01*
X176589152Y-80022482D01*
X176601412Y-79898000D01*
X176601412Y-78598000D01*
X176589152Y-78473518D01*
X176552842Y-78353820D01*
X176493877Y-78243506D01*
X176414525Y-78146815D01*
X176317834Y-78067463D01*
X176207520Y-78008498D01*
X176087822Y-77972188D01*
X175963340Y-77959928D01*
X174663340Y-77959928D01*
X174538858Y-77972188D01*
X174419160Y-78008498D01*
X174308846Y-78067463D01*
X174212155Y-78146815D01*
X174132803Y-78243506D01*
X174073838Y-78353820D01*
X174037528Y-78473518D01*
X174025268Y-78598000D01*
X174025268Y-78938296D01*
X174022610Y-78921551D01*
X173934918Y-78684104D01*
X173887541Y-78595466D01*
X173658867Y-78542078D01*
X172952945Y-79248000D01*
X172593735Y-79248000D01*
X171887813Y-78542078D01*
X171659139Y-78595466D01*
X171553245Y-78825374D01*
X171501984Y-79039211D01*
X171468959Y-78873179D01*
X171372093Y-78639324D01*
X171231465Y-78428860D01*
X171165078Y-78362473D01*
X172067418Y-78362473D01*
X172773340Y-79068395D01*
X173479262Y-78362473D01*
X173425874Y-78133799D01*
X173195966Y-78027905D01*
X172949816Y-77968898D01*
X172696885Y-77959048D01*
X172446891Y-77998730D01*
X172209444Y-78086422D01*
X172120806Y-78133799D01*
X172067418Y-78362473D01*
X171165078Y-78362473D01*
X171052480Y-78249875D01*
X170842016Y-78109247D01*
X170608161Y-78012381D01*
X170359901Y-77963000D01*
X170106779Y-77963000D01*
X169858519Y-78012381D01*
X169624664Y-78109247D01*
X169414200Y-78249875D01*
X169235215Y-78428860D01*
X169094587Y-78639324D01*
X168997721Y-78873179D01*
X168948340Y-79121439D01*
X163927600Y-79121439D01*
X163927600Y-57866193D01*
X164111945Y-57714905D01*
X164275543Y-57515560D01*
X166314808Y-57515560D01*
X166327068Y-57640042D01*
X166363378Y-57759740D01*
X166422343Y-57870054D01*
X166501695Y-57966745D01*
X166598386Y-58046097D01*
X166708700Y-58105062D01*
X166828398Y-58141372D01*
X166952880Y-58153632D01*
X167537130Y-58150560D01*
X167695880Y-57991810D01*
X167695880Y-56547560D01*
X166476630Y-56547560D01*
X166317880Y-56706310D01*
X166314808Y-57515560D01*
X164275543Y-57515560D01*
X164300017Y-57485739D01*
X164439766Y-57224284D01*
X164525824Y-56940591D01*
X164547600Y-56719495D01*
X164547600Y-56121624D01*
X164525824Y-55900528D01*
X164439766Y-55616835D01*
X164300017Y-55355381D01*
X164275544Y-55325560D01*
X166314808Y-55325560D01*
X166317880Y-56134810D01*
X166476630Y-56293560D01*
X167695880Y-56293560D01*
X167695880Y-54849310D01*
X167949880Y-54849310D01*
X167949880Y-56293560D01*
X167969880Y-56293560D01*
X167969880Y-56547560D01*
X167949880Y-56547560D01*
X167949880Y-57991810D01*
X168108630Y-58150560D01*
X168692880Y-58153632D01*
X168817362Y-58141372D01*
X168937060Y-58105062D01*
X168983217Y-58080390D01*
X168983218Y-67573475D01*
X168978936Y-67616954D01*
X168996022Y-67790444D01*
X169046629Y-67957267D01*
X169128807Y-68111013D01*
X169211685Y-68212000D01*
X169211688Y-68212003D01*
X169239401Y-68245771D01*
X169273169Y-68273484D01*
X176628279Y-75628595D01*
X176628280Y-87105522D01*
X176623998Y-87149001D01*
X176641084Y-87322491D01*
X176691691Y-87489314D01*
X176773869Y-87643060D01*
X176856747Y-87744047D01*
X176856750Y-87744050D01*
X176884463Y-87777818D01*
X176918231Y-87805531D01*
X177298745Y-88186045D01*
X177326462Y-88219818D01*
X177461220Y-88330412D01*
X177614966Y-88412590D01*
X177781789Y-88463196D01*
X177911802Y-88476001D01*
X177911812Y-88476001D01*
X177955278Y-88480282D01*
X177998744Y-88476001D01*
X180569810Y-88476001D01*
X180613279Y-88480282D01*
X180656748Y-88476001D01*
X180656756Y-88476001D01*
X180786769Y-88463196D01*
X180953592Y-88412590D01*
X181107338Y-88330412D01*
X181242096Y-88219818D01*
X181269813Y-88186045D01*
X181708324Y-87747535D01*
X181765178Y-87736226D01*
X181953536Y-87658205D01*
X182123054Y-87544937D01*
X182267217Y-87400774D01*
X182380485Y-87231256D01*
X182458506Y-87042898D01*
X182498280Y-86842939D01*
X182498280Y-86639061D01*
X182458506Y-86439102D01*
X182380485Y-86250744D01*
X182267217Y-86081226D01*
X182123054Y-85937063D01*
X181953536Y-85823795D01*
X181765178Y-85745774D01*
X181565219Y-85706000D01*
X181361341Y-85706000D01*
X181161382Y-85745774D01*
X180973024Y-85823795D01*
X180803506Y-85937063D01*
X180659343Y-86081226D01*
X180546075Y-86250744D01*
X180468054Y-86439102D01*
X180456745Y-86495956D01*
X180246701Y-86706001D01*
X179398280Y-86706001D01*
X179398280Y-86639061D01*
X179358506Y-86439102D01*
X179280485Y-86250744D01*
X179248280Y-86202546D01*
X179248280Y-78892061D01*
X190227000Y-78892061D01*
X190227000Y-79095939D01*
X190266774Y-79295898D01*
X190344795Y-79484256D01*
X190458063Y-79653774D01*
X190602226Y-79797937D01*
X190771744Y-79911205D01*
X190960102Y-79989226D01*
X191160061Y-80029000D01*
X191363939Y-80029000D01*
X191563898Y-79989226D01*
X191752256Y-79911205D01*
X191921774Y-79797937D01*
X192065937Y-79653774D01*
X192179205Y-79484256D01*
X192257226Y-79295898D01*
X192268535Y-79239043D01*
X192808050Y-78699529D01*
X192841817Y-78671817D01*
X192952411Y-78537059D01*
X193034589Y-78383313D01*
X193085195Y-78216490D01*
X193098000Y-78086477D01*
X193098000Y-78086467D01*
X193102281Y-78043001D01*
X193098000Y-77999535D01*
X193098000Y-70192454D01*
X193130205Y-70144256D01*
X193208226Y-69955898D01*
X193248000Y-69755939D01*
X193248000Y-69552061D01*
X193208226Y-69352102D01*
X193130205Y-69163744D01*
X193016937Y-68994226D01*
X192872774Y-68850063D01*
X192703256Y-68736795D01*
X192514898Y-68658774D01*
X192314939Y-68619000D01*
X192111061Y-68619000D01*
X191911102Y-68658774D01*
X191722744Y-68736795D01*
X191553226Y-68850063D01*
X191409063Y-68994226D01*
X191295795Y-69163744D01*
X191217774Y-69352102D01*
X191178000Y-69552061D01*
X191178000Y-69755939D01*
X191217774Y-69955898D01*
X191295795Y-70144256D01*
X191328001Y-70192456D01*
X191328000Y-77676421D01*
X191016957Y-77987465D01*
X190960102Y-77998774D01*
X190771744Y-78076795D01*
X190602226Y-78190063D01*
X190458063Y-78334226D01*
X190344795Y-78503744D01*
X190266774Y-78692102D01*
X190227000Y-78892061D01*
X179248280Y-78892061D01*
X179248280Y-75165523D01*
X179252561Y-75122054D01*
X179248280Y-75078585D01*
X179248280Y-75078577D01*
X179235475Y-74948564D01*
X179227326Y-74921702D01*
X179184869Y-74781740D01*
X179102691Y-74627995D01*
X179019812Y-74527007D01*
X179019810Y-74527005D01*
X178992097Y-74493237D01*
X178958331Y-74465526D01*
X173294805Y-68802001D01*
X190341248Y-68802001D01*
X190396999Y-68807492D01*
X190452750Y-68802001D01*
X190452751Y-68802001D01*
X190619498Y-68785578D01*
X190833446Y-68720677D01*
X191030622Y-68615285D01*
X191203448Y-68473450D01*
X191238995Y-68430136D01*
X192666257Y-67002874D01*
X192779399Y-67049739D01*
X193288475Y-67151000D01*
X193807525Y-67151000D01*
X194316601Y-67049739D01*
X194796141Y-66851107D01*
X195227715Y-66562738D01*
X195594738Y-66195715D01*
X195883107Y-65764141D01*
X196081739Y-65284601D01*
X196183000Y-64775525D01*
X196183000Y-64256475D01*
X196081739Y-63747399D01*
X195883107Y-63267859D01*
X195594738Y-62836285D01*
X195227715Y-62469262D01*
X194796141Y-62180893D01*
X194316601Y-61982261D01*
X193807525Y-61881000D01*
X193288475Y-61881000D01*
X192779399Y-61982261D01*
X192299859Y-62180893D01*
X191868285Y-62469262D01*
X191501262Y-62836285D01*
X191212893Y-63267859D01*
X191014261Y-63747399D01*
X190913000Y-64256475D01*
X190913000Y-64775525D01*
X191014261Y-65284601D01*
X191061126Y-65397743D01*
X189926868Y-66532001D01*
X175206130Y-66532001D01*
X175244528Y-66378816D01*
X175258445Y-66096488D01*
X175217015Y-65816870D01*
X175121831Y-65550708D01*
X175054899Y-65425486D01*
X174810930Y-65353903D01*
X173997833Y-66167000D01*
X174011976Y-66181143D01*
X173832371Y-66360748D01*
X173818228Y-66346605D01*
X173804086Y-66360748D01*
X173624481Y-66181143D01*
X173638623Y-66167000D01*
X173624481Y-66152858D01*
X173804086Y-65973253D01*
X173818228Y-65987395D01*
X174631325Y-65174298D01*
X174559742Y-64930329D01*
X174304232Y-64809429D01*
X174030044Y-64740700D01*
X173747716Y-64726783D01*
X173468098Y-64768213D01*
X173201936Y-64863397D01*
X173079919Y-64928616D01*
X173069413Y-64915815D01*
X172972722Y-64836463D01*
X172862408Y-64777498D01*
X172742710Y-64741188D01*
X172618228Y-64728928D01*
X171453227Y-64728928D01*
X171453227Y-63902071D01*
X177264130Y-58091169D01*
X177388129Y-58128784D01*
X177683160Y-58157842D01*
X177978192Y-58128784D01*
X178261885Y-58042726D01*
X178523339Y-57902977D01*
X178752505Y-57714905D01*
X178916103Y-57515560D01*
X180955368Y-57515560D01*
X180967628Y-57640042D01*
X181003938Y-57759740D01*
X181062903Y-57870054D01*
X181142255Y-57966745D01*
X181238946Y-58046097D01*
X181349260Y-58105062D01*
X181468958Y-58141372D01*
X181593440Y-58153632D01*
X182177690Y-58150560D01*
X182336440Y-57991810D01*
X182336440Y-56547560D01*
X181117190Y-56547560D01*
X180958440Y-56706310D01*
X180955368Y-57515560D01*
X178916103Y-57515560D01*
X178940577Y-57485739D01*
X179080326Y-57224284D01*
X179166384Y-56940591D01*
X179188160Y-56719495D01*
X179188160Y-56121624D01*
X179166384Y-55900528D01*
X179080326Y-55616835D01*
X178940577Y-55355381D01*
X178916104Y-55325560D01*
X180955368Y-55325560D01*
X180958440Y-56134810D01*
X181117190Y-56293560D01*
X182336440Y-56293560D01*
X182336440Y-54849310D01*
X182590440Y-54849310D01*
X182590440Y-56293560D01*
X182610440Y-56293560D01*
X182610440Y-56547560D01*
X182590440Y-56547560D01*
X182590440Y-57991810D01*
X182749190Y-58150560D01*
X183333440Y-58153632D01*
X183457922Y-58141372D01*
X183577620Y-58105062D01*
X183687934Y-58046097D01*
X183784625Y-57966745D01*
X183863977Y-57870054D01*
X183922942Y-57759740D01*
X183936055Y-57716513D01*
X184163262Y-57902977D01*
X184424716Y-58042726D01*
X184708409Y-58128784D01*
X185003440Y-58157842D01*
X185298472Y-58128784D01*
X185582165Y-58042726D01*
X185843619Y-57902977D01*
X186072785Y-57714905D01*
X186260857Y-57485739D01*
X186400606Y-57224284D01*
X186486664Y-56940591D01*
X186508440Y-56719495D01*
X186508440Y-56121624D01*
X186486664Y-55900528D01*
X186400606Y-55616835D01*
X186260857Y-55355381D01*
X186072785Y-55126215D01*
X185843618Y-54938143D01*
X185582164Y-54798394D01*
X185298471Y-54712336D01*
X185003440Y-54683278D01*
X184708408Y-54712336D01*
X184424715Y-54798394D01*
X184163261Y-54938143D01*
X183936055Y-55124607D01*
X183922942Y-55081380D01*
X183863977Y-54971066D01*
X183784625Y-54874375D01*
X183687934Y-54795023D01*
X183577620Y-54736058D01*
X183457922Y-54699748D01*
X183333440Y-54687488D01*
X182749190Y-54690560D01*
X182590440Y-54849310D01*
X182336440Y-54849310D01*
X182177690Y-54690560D01*
X181593440Y-54687488D01*
X181468958Y-54699748D01*
X181349260Y-54736058D01*
X181238946Y-54795023D01*
X181142255Y-54874375D01*
X181062903Y-54971066D01*
X181003938Y-55081380D01*
X180967628Y-55201078D01*
X180955368Y-55325560D01*
X178916104Y-55325560D01*
X178752505Y-55126215D01*
X178523338Y-54938143D01*
X178261884Y-54798394D01*
X177978191Y-54712336D01*
X177683160Y-54683278D01*
X177388128Y-54712336D01*
X177104435Y-54798394D01*
X176842981Y-54938143D01*
X176615775Y-55124607D01*
X176602662Y-55081380D01*
X176543697Y-54971066D01*
X176464345Y-54874375D01*
X176367654Y-54795023D01*
X176257340Y-54736058D01*
X176137642Y-54699748D01*
X176013160Y-54687488D01*
X175428910Y-54690560D01*
X175270160Y-54849310D01*
X175270160Y-56293560D01*
X175290160Y-56293560D01*
X175290160Y-56547560D01*
X175270160Y-56547560D01*
X175270160Y-56567560D01*
X175016160Y-56567560D01*
X175016160Y-56547560D01*
X173796910Y-56547560D01*
X173638160Y-56706310D01*
X173635088Y-57515560D01*
X173647348Y-57640042D01*
X173683658Y-57759740D01*
X173742623Y-57870054D01*
X173821975Y-57966745D01*
X173918666Y-58046097D01*
X174028980Y-58105062D01*
X174148678Y-58141372D01*
X174273160Y-58153632D01*
X174700758Y-58151384D01*
X170753217Y-62098925D01*
X170753217Y-58099873D01*
X170941605Y-58042726D01*
X171203059Y-57902977D01*
X171432225Y-57714905D01*
X171620297Y-57485739D01*
X171760046Y-57224284D01*
X171846104Y-56940591D01*
X171867880Y-56719495D01*
X171867880Y-56121624D01*
X171846104Y-55900528D01*
X171760046Y-55616835D01*
X171620297Y-55355381D01*
X171595824Y-55325560D01*
X173635088Y-55325560D01*
X173638160Y-56134810D01*
X173796910Y-56293560D01*
X175016160Y-56293560D01*
X175016160Y-54849310D01*
X174857410Y-54690560D01*
X174273160Y-54687488D01*
X174148678Y-54699748D01*
X174028980Y-54736058D01*
X173918666Y-54795023D01*
X173821975Y-54874375D01*
X173742623Y-54971066D01*
X173683658Y-55081380D01*
X173647348Y-55201078D01*
X173635088Y-55325560D01*
X171595824Y-55325560D01*
X171432225Y-55126215D01*
X171203058Y-54938143D01*
X170941604Y-54798394D01*
X170657911Y-54712336D01*
X170362880Y-54683278D01*
X170067848Y-54712336D01*
X169784155Y-54798394D01*
X169522701Y-54938143D01*
X169295495Y-55124607D01*
X169282382Y-55081380D01*
X169223417Y-54971066D01*
X169144065Y-54874375D01*
X169047374Y-54795023D01*
X168937060Y-54736058D01*
X168817362Y-54699748D01*
X168692880Y-54687488D01*
X168108630Y-54690560D01*
X167949880Y-54849310D01*
X167695880Y-54849310D01*
X167537130Y-54690560D01*
X166952880Y-54687488D01*
X166828398Y-54699748D01*
X166708700Y-54736058D01*
X166598386Y-54795023D01*
X166501695Y-54874375D01*
X166422343Y-54971066D01*
X166363378Y-55081380D01*
X166327068Y-55201078D01*
X166314808Y-55325560D01*
X164275544Y-55325560D01*
X164111945Y-55126215D01*
X163882778Y-54938143D01*
X163621324Y-54798394D01*
X163337631Y-54712336D01*
X163042600Y-54683278D01*
X162747568Y-54712336D01*
X162463875Y-54798394D01*
X162202421Y-54938143D01*
X161975215Y-55124607D01*
X161962102Y-55081380D01*
X161903137Y-54971066D01*
X161823785Y-54874375D01*
X161727094Y-54795023D01*
X161616780Y-54736058D01*
X161497082Y-54699748D01*
X161372600Y-54687488D01*
X160788350Y-54690560D01*
X160629600Y-54849310D01*
X160629600Y-56293560D01*
X160649600Y-56293560D01*
X160649600Y-56547560D01*
X160629600Y-56547560D01*
X160629600Y-57991810D01*
X160788350Y-58150560D01*
X161372600Y-58153632D01*
X161497082Y-58141372D01*
X161616780Y-58105062D01*
X161727094Y-58046097D01*
X161823785Y-57966745D01*
X161903137Y-57870054D01*
X161962102Y-57759740D01*
X161975215Y-57716513D01*
X162157600Y-57866193D01*
X162157601Y-85656721D01*
X162153319Y-85700200D01*
X162170405Y-85873690D01*
X162221012Y-86040513D01*
X162303190Y-86194259D01*
X162386068Y-86295246D01*
X162386071Y-86295249D01*
X162413784Y-86329017D01*
X162447551Y-86356729D01*
X162498763Y-86407941D01*
X162333490Y-86357805D01*
X162203477Y-86345000D01*
X162203469Y-86345000D01*
X162160000Y-86340719D01*
X162116531Y-86345000D01*
X158836454Y-86345000D01*
X158788256Y-86312795D01*
X158599898Y-86234774D01*
X158399939Y-86195000D01*
X158196061Y-86195000D01*
X157996102Y-86234774D01*
X157807744Y-86312795D01*
X157638226Y-86426063D01*
X157562933Y-86501356D01*
X153031000Y-81969424D01*
X153031000Y-78638061D01*
X156191000Y-78638061D01*
X156191000Y-78841939D01*
X156230774Y-79041898D01*
X156308795Y-79230256D01*
X156422063Y-79399774D01*
X156566226Y-79543937D01*
X156735744Y-79657205D01*
X156924102Y-79735226D01*
X157124061Y-79775000D01*
X157327939Y-79775000D01*
X157527898Y-79735226D01*
X157716256Y-79657205D01*
X157885774Y-79543937D01*
X158029937Y-79399774D01*
X158143205Y-79230256D01*
X158221226Y-79041898D01*
X158232535Y-78985043D01*
X158893050Y-78324529D01*
X158926817Y-78296817D01*
X158965450Y-78249744D01*
X159037410Y-78162060D01*
X159037411Y-78162059D01*
X159119589Y-78008313D01*
X159170195Y-77841490D01*
X159183000Y-77711477D01*
X159183000Y-77711469D01*
X159187281Y-77668000D01*
X159183000Y-77624531D01*
X159183000Y-70192454D01*
X159215205Y-70144256D01*
X159293226Y-69955898D01*
X159333000Y-69755939D01*
X159333000Y-69552061D01*
X159293226Y-69352102D01*
X159215205Y-69163744D01*
X159101937Y-68994226D01*
X158957774Y-68850063D01*
X158788256Y-68736795D01*
X158599898Y-68658774D01*
X158399939Y-68619000D01*
X158196061Y-68619000D01*
X157996102Y-68658774D01*
X157807744Y-68736795D01*
X157638226Y-68850063D01*
X157494063Y-68994226D01*
X157380795Y-69163744D01*
X157302774Y-69352102D01*
X157263000Y-69552061D01*
X157263000Y-69755939D01*
X157302774Y-69955898D01*
X157380795Y-70144256D01*
X157413001Y-70192456D01*
X157413000Y-77301421D01*
X156980957Y-77733465D01*
X156924102Y-77744774D01*
X156735744Y-77822795D01*
X156566226Y-77936063D01*
X156422063Y-78080226D01*
X156308795Y-78249744D01*
X156230774Y-78438102D01*
X156191000Y-78638061D01*
X153031000Y-78638061D01*
X153031000Y-67001525D01*
X153394141Y-66851107D01*
X153825715Y-66562738D01*
X154192738Y-66195715D01*
X154481107Y-65764141D01*
X154679739Y-65284601D01*
X154781000Y-64775525D01*
X154781000Y-64256475D01*
X154679739Y-63747399D01*
X154481107Y-63267859D01*
X154192738Y-62836285D01*
X153825715Y-62469262D01*
X153394141Y-62180893D01*
X152914601Y-61982261D01*
X152405525Y-61881000D01*
X151886475Y-61881000D01*
X151377399Y-61982261D01*
X150897859Y-62180893D01*
X150466285Y-62469262D01*
X150099262Y-62836285D01*
X149810893Y-63267859D01*
X149612261Y-63747399D01*
X149511000Y-64256475D01*
X147980000Y-64256475D01*
X147980000Y-57515560D01*
X158994528Y-57515560D01*
X159006788Y-57640042D01*
X159043098Y-57759740D01*
X159102063Y-57870054D01*
X159181415Y-57966745D01*
X159278106Y-58046097D01*
X159388420Y-58105062D01*
X159508118Y-58141372D01*
X159632600Y-58153632D01*
X160216850Y-58150560D01*
X160375600Y-57991810D01*
X160375600Y-56547560D01*
X159156350Y-56547560D01*
X158997600Y-56706310D01*
X158994528Y-57515560D01*
X147980000Y-57515560D01*
X147980000Y-54389872D01*
X148895000Y-54389872D01*
X148895000Y-54830128D01*
X148980890Y-55261925D01*
X149149369Y-55668669D01*
X149393962Y-56034729D01*
X149705271Y-56346038D01*
X150071331Y-56590631D01*
X150478075Y-56759110D01*
X150909872Y-56845000D01*
X151350128Y-56845000D01*
X151781925Y-56759110D01*
X152188669Y-56590631D01*
X152554729Y-56346038D01*
X152866038Y-56034729D01*
X153110631Y-55668669D01*
X153252751Y-55325560D01*
X158994528Y-55325560D01*
X158997600Y-56134810D01*
X159156350Y-56293560D01*
X160375600Y-56293560D01*
X160375600Y-54849310D01*
X160216850Y-54690560D01*
X159632600Y-54687488D01*
X159508118Y-54699748D01*
X159388420Y-54736058D01*
X159278106Y-54795023D01*
X159181415Y-54874375D01*
X159102063Y-54971066D01*
X159043098Y-55081380D01*
X159006788Y-55201078D01*
X158994528Y-55325560D01*
X153252751Y-55325560D01*
X153279110Y-55261925D01*
X153365000Y-54830128D01*
X153365000Y-54389872D01*
X192075000Y-54389872D01*
X192075000Y-54830128D01*
X192160890Y-55261925D01*
X192329369Y-55668669D01*
X192573962Y-56034729D01*
X192885271Y-56346038D01*
X193251331Y-56590631D01*
X193658075Y-56759110D01*
X194089872Y-56845000D01*
X194530128Y-56845000D01*
X194961925Y-56759110D01*
X195368669Y-56590631D01*
X195734729Y-56346038D01*
X196046038Y-56034729D01*
X196290631Y-55668669D01*
X196459110Y-55261925D01*
X196545000Y-54830128D01*
X196545000Y-54389872D01*
X196459110Y-53958075D01*
X196290631Y-53551331D01*
X196046038Y-53185271D01*
X195734729Y-52873962D01*
X195368669Y-52629369D01*
X194961925Y-52460890D01*
X194530128Y-52375000D01*
X194089872Y-52375000D01*
X193658075Y-52460890D01*
X193251331Y-52629369D01*
X192885271Y-52873962D01*
X192573962Y-53185271D01*
X192329369Y-53551331D01*
X192160890Y-53958075D01*
X192075000Y-54389872D01*
X153365000Y-54389872D01*
X153279110Y-53958075D01*
X153110631Y-53551331D01*
X152866038Y-53185271D01*
X152554729Y-52873962D01*
X152188669Y-52629369D01*
X151781925Y-52460890D01*
X151350128Y-52375000D01*
X150909872Y-52375000D01*
X150478075Y-52460890D01*
X150071331Y-52629369D01*
X149705271Y-52873962D01*
X149393962Y-53185271D01*
X149149369Y-53551331D01*
X148980890Y-53958075D01*
X148895000Y-54389872D01*
X147980000Y-54389872D01*
X147980000Y-52102279D01*
X147994722Y-51952131D01*
X148028953Y-51838754D01*
X148084555Y-51734181D01*
X148159407Y-51642404D01*
X148250664Y-51566909D01*
X148354844Y-51510581D01*
X148467976Y-51475560D01*
X148616022Y-51460000D01*
X196817721Y-51460000D01*
X196967869Y-51474722D01*
%TA.AperFunction,Conductor*%
D21*
G36*
X196967869Y-51474722D02*
G01*
X197081246Y-51508953D01*
X197185819Y-51564555D01*
X197277596Y-51639407D01*
X197353091Y-51730664D01*
X197409419Y-51834844D01*
X197444440Y-51947976D01*
X197460001Y-52096031D01*
X197460000Y-125697721D01*
X197445278Y-125847869D01*
X197411047Y-125961246D01*
X197355446Y-126065817D01*
X197280594Y-126157595D01*
X197189335Y-126233091D01*
X197085160Y-126289419D01*
X196972024Y-126324440D01*
X196823979Y-126340000D01*
X148622279Y-126340000D01*
X148472131Y-126325278D01*
X148358754Y-126291047D01*
X148254183Y-126235446D01*
X148162405Y-126160594D01*
X148086909Y-126069335D01*
X148030581Y-125965160D01*
X147995560Y-125852024D01*
X147980000Y-125703979D01*
X147980000Y-122969872D01*
X148895000Y-122969872D01*
X148895000Y-123410128D01*
X148980890Y-123841925D01*
X149149369Y-124248669D01*
X149393962Y-124614729D01*
X149705271Y-124926038D01*
X150071331Y-125170631D01*
X150478075Y-125339110D01*
X150909872Y-125425000D01*
X151350128Y-125425000D01*
X151781925Y-125339110D01*
X152188669Y-125170631D01*
X152554729Y-124926038D01*
X152866038Y-124614729D01*
X153110631Y-124248669D01*
X153279110Y-123841925D01*
X153365000Y-123410128D01*
X153365000Y-122969872D01*
X192075000Y-122969872D01*
X192075000Y-123410128D01*
X192160890Y-123841925D01*
X192329369Y-124248669D01*
X192573962Y-124614729D01*
X192885271Y-124926038D01*
X193251331Y-125170631D01*
X193658075Y-125339110D01*
X194089872Y-125425000D01*
X194530128Y-125425000D01*
X194961925Y-125339110D01*
X195368669Y-125170631D01*
X195734729Y-124926038D01*
X196046038Y-124614729D01*
X196290631Y-124248669D01*
X196459110Y-123841925D01*
X196545000Y-123410128D01*
X196545000Y-122969872D01*
X196459110Y-122538075D01*
X196290631Y-122131331D01*
X196046038Y-121765271D01*
X195734729Y-121453962D01*
X195368669Y-121209369D01*
X194961925Y-121040890D01*
X194530128Y-120955000D01*
X194089872Y-120955000D01*
X193658075Y-121040890D01*
X193251331Y-121209369D01*
X192885271Y-121453962D01*
X192573962Y-121765271D01*
X192329369Y-122131331D01*
X192160890Y-122538075D01*
X192075000Y-122969872D01*
X153365000Y-122969872D01*
X153279110Y-122538075D01*
X153110631Y-122131331D01*
X152866038Y-121765271D01*
X152554729Y-121453962D01*
X152188669Y-121209369D01*
X151781925Y-121040890D01*
X151350128Y-120955000D01*
X150909872Y-120955000D01*
X150478075Y-121040890D01*
X150071331Y-121209369D01*
X149705271Y-121453962D01*
X149393962Y-121765271D01*
X149149369Y-122131331D01*
X148980890Y-122538075D01*
X148895000Y-122969872D01*
X147980000Y-122969872D01*
X147980000Y-113278475D01*
X162998400Y-113278475D01*
X162998400Y-113797525D01*
X163099661Y-114306601D01*
X163298293Y-114786141D01*
X163586662Y-115217715D01*
X163953685Y-115584738D01*
X164385259Y-115873107D01*
X164864799Y-116071739D01*
X165373875Y-116173000D01*
X165892925Y-116173000D01*
X166402001Y-116071739D01*
X166881541Y-115873107D01*
X167313115Y-115584738D01*
X167680138Y-115217715D01*
X167968507Y-114786141D01*
X168167139Y-114306601D01*
X168268400Y-113797525D01*
X168268400Y-113278475D01*
X177278280Y-113278475D01*
X177278280Y-113797525D01*
X177379541Y-114306601D01*
X177578173Y-114786141D01*
X177866542Y-115217715D01*
X178233565Y-115584738D01*
X178665139Y-115873107D01*
X179144679Y-116071739D01*
X179653755Y-116173000D01*
X180172805Y-116173000D01*
X180681881Y-116071739D01*
X181161421Y-115873107D01*
X181592995Y-115584738D01*
X181960018Y-115217715D01*
X182248387Y-114786141D01*
X182447019Y-114306601D01*
X182548280Y-113797525D01*
X182548280Y-113278475D01*
X182447019Y-112769399D01*
X182248387Y-112289859D01*
X181960018Y-111858285D01*
X181592995Y-111491262D01*
X181161421Y-111202893D01*
X180798280Y-111052475D01*
X180798280Y-108536348D01*
X185935640Y-108536348D01*
X185935640Y-108897812D01*
X186006158Y-109252330D01*
X186144484Y-109586279D01*
X186345302Y-109886824D01*
X186600896Y-110142418D01*
X186901441Y-110343236D01*
X187235390Y-110481562D01*
X187589908Y-110552080D01*
X187951372Y-110552080D01*
X188305890Y-110481562D01*
X188639839Y-110343236D01*
X188940384Y-110142418D01*
X189195978Y-109886824D01*
X189270640Y-109775085D01*
X189345302Y-109886824D01*
X189600896Y-110142418D01*
X189901441Y-110343236D01*
X190235390Y-110481562D01*
X190589908Y-110552080D01*
X190951372Y-110552080D01*
X191305890Y-110481562D01*
X191639839Y-110343236D01*
X191940384Y-110142418D01*
X192195978Y-109886824D01*
X192396796Y-109586279D01*
X192535122Y-109252330D01*
X192605640Y-108897812D01*
X192605640Y-108536348D01*
X192535122Y-108181830D01*
X192396796Y-107847881D01*
X192195978Y-107547336D01*
X191940384Y-107291742D01*
X191639839Y-107090924D01*
X191305890Y-106952598D01*
X190951372Y-106882080D01*
X190589908Y-106882080D01*
X190235390Y-106952598D01*
X189901441Y-107090924D01*
X189600896Y-107291742D01*
X189345302Y-107547336D01*
X189270640Y-107659075D01*
X189195978Y-107547336D01*
X188940384Y-107291742D01*
X188639839Y-107090924D01*
X188305890Y-106952598D01*
X187951372Y-106882080D01*
X187589908Y-106882080D01*
X187235390Y-106952598D01*
X186901441Y-107090924D01*
X186600896Y-107291742D01*
X186345302Y-107547336D01*
X186144484Y-107847881D01*
X186006158Y-108181830D01*
X185935640Y-108536348D01*
X180798280Y-108536348D01*
X180798280Y-105078478D01*
X181720824Y-104155935D01*
X181777678Y-104144626D01*
X181966036Y-104066605D01*
X182135554Y-103953337D01*
X182279717Y-103809174D01*
X182392985Y-103639656D01*
X182471006Y-103451298D01*
X182510780Y-103251339D01*
X182510780Y-103047461D01*
X182471006Y-102847502D01*
X182392985Y-102659144D01*
X182279717Y-102489626D01*
X182135554Y-102345463D01*
X181966036Y-102232195D01*
X181777678Y-102154174D01*
X181577719Y-102114400D01*
X181373841Y-102114400D01*
X181173882Y-102154174D01*
X180985524Y-102232195D01*
X180816006Y-102345463D01*
X180671843Y-102489626D01*
X180558575Y-102659144D01*
X180480554Y-102847502D01*
X180469245Y-102904356D01*
X179318231Y-104055371D01*
X179284464Y-104083083D01*
X179256751Y-104116851D01*
X179256748Y-104116854D01*
X179173870Y-104217841D01*
X179091692Y-104371587D01*
X179041085Y-104538410D01*
X179023999Y-104711900D01*
X179028281Y-104755379D01*
X179028280Y-111052475D01*
X178665139Y-111202893D01*
X178233565Y-111491262D01*
X177866542Y-111858285D01*
X177578173Y-112289859D01*
X177379541Y-112769399D01*
X177278280Y-113278475D01*
X168268400Y-113278475D01*
X168167139Y-112769399D01*
X167968507Y-112289859D01*
X167680138Y-111858285D01*
X167313115Y-111491262D01*
X166881541Y-111202893D01*
X166518400Y-111052475D01*
X166518400Y-104755369D01*
X166522681Y-104711900D01*
X166518400Y-104668431D01*
X166518400Y-104668423D01*
X166505595Y-104538410D01*
X166454989Y-104371587D01*
X166454989Y-104371586D01*
X166372811Y-104217841D01*
X166289932Y-104116853D01*
X166289930Y-104116851D01*
X166262217Y-104083083D01*
X166228449Y-104055370D01*
X165077435Y-102904357D01*
X165066126Y-102847502D01*
X164988105Y-102659144D01*
X164874837Y-102489626D01*
X164730674Y-102345463D01*
X164561156Y-102232195D01*
X164372798Y-102154174D01*
X164172839Y-102114400D01*
X163968961Y-102114400D01*
X163769002Y-102154174D01*
X163580644Y-102232195D01*
X163411126Y-102345463D01*
X163266963Y-102489626D01*
X163153695Y-102659144D01*
X163075674Y-102847502D01*
X163035900Y-103047461D01*
X163035900Y-103251339D01*
X163075674Y-103451298D01*
X163153695Y-103639656D01*
X163266963Y-103809174D01*
X163411126Y-103953337D01*
X163580644Y-104066605D01*
X163769002Y-104144626D01*
X163825857Y-104155935D01*
X164748401Y-105078480D01*
X164748400Y-111052475D01*
X164385259Y-111202893D01*
X163953685Y-111491262D01*
X163586662Y-111858285D01*
X163298293Y-112289859D01*
X163099661Y-112769399D01*
X162998400Y-113278475D01*
X147980000Y-113278475D01*
X147980000Y-108536348D01*
X152631160Y-108536348D01*
X152631160Y-108897812D01*
X152701678Y-109252330D01*
X152840004Y-109586279D01*
X153040822Y-109886824D01*
X153296416Y-110142418D01*
X153596961Y-110343236D01*
X153930910Y-110481562D01*
X154285428Y-110552080D01*
X154646892Y-110552080D01*
X155001410Y-110481562D01*
X155335359Y-110343236D01*
X155635904Y-110142418D01*
X155891498Y-109886824D01*
X155966160Y-109775085D01*
X156040822Y-109886824D01*
X156296416Y-110142418D01*
X156596961Y-110343236D01*
X156930910Y-110481562D01*
X157285428Y-110552080D01*
X157646892Y-110552080D01*
X158001410Y-110481562D01*
X158335359Y-110343236D01*
X158635904Y-110142418D01*
X158891498Y-109886824D01*
X159092316Y-109586279D01*
X159230642Y-109252330D01*
X159301160Y-108897812D01*
X159301160Y-108536348D01*
X159230642Y-108181830D01*
X159092316Y-107847881D01*
X158891498Y-107547336D01*
X158635904Y-107291742D01*
X158335359Y-107090924D01*
X158001410Y-106952598D01*
X157646892Y-106882080D01*
X157285428Y-106882080D01*
X156930910Y-106952598D01*
X156596961Y-107090924D01*
X156296416Y-107291742D01*
X156040822Y-107547336D01*
X155966160Y-107659075D01*
X155891498Y-107547336D01*
X155635904Y-107291742D01*
X155335359Y-107090924D01*
X155001410Y-106952598D01*
X154646892Y-106882080D01*
X154285428Y-106882080D01*
X153930910Y-106952598D01*
X153596961Y-107090924D01*
X153296416Y-107291742D01*
X153040822Y-107547336D01*
X152840004Y-107847881D01*
X152701678Y-108181830D01*
X152631160Y-108536348D01*
X147980000Y-108536348D01*
X147980000Y-97530475D01*
X153331160Y-97530475D01*
X153331160Y-98049525D01*
X153432421Y-98558601D01*
X153631053Y-99038141D01*
X153919422Y-99469715D01*
X154286445Y-99836738D01*
X154718019Y-100125107D01*
X155197559Y-100323739D01*
X155706635Y-100425000D01*
X156225685Y-100425000D01*
X156734761Y-100323739D01*
X157214301Y-100125107D01*
X157645875Y-99836738D01*
X158012898Y-99469715D01*
X158301267Y-99038141D01*
X158499899Y-98558601D01*
X158601160Y-98049525D01*
X158601160Y-97530475D01*
X186635640Y-97530475D01*
X186635640Y-98049525D01*
X186736901Y-98558601D01*
X186935533Y-99038141D01*
X187223902Y-99469715D01*
X187590925Y-99836738D01*
X188022499Y-100125107D01*
X188502039Y-100323739D01*
X189011115Y-100425000D01*
X189530165Y-100425000D01*
X190039241Y-100323739D01*
X190518781Y-100125107D01*
X190950355Y-99836738D01*
X191317378Y-99469715D01*
X191605747Y-99038141D01*
X191804379Y-98558601D01*
X191905640Y-98049525D01*
X191905640Y-97530475D01*
X191804379Y-97021399D01*
X191605747Y-96541859D01*
X191317378Y-96110285D01*
X190950355Y-95743262D01*
X190518781Y-95454893D01*
X190039241Y-95256261D01*
X189530165Y-95155000D01*
X189011115Y-95155000D01*
X188502039Y-95256261D01*
X188022499Y-95454893D01*
X187590925Y-95743262D01*
X187223902Y-96110285D01*
X186935533Y-96541859D01*
X186736901Y-97021399D01*
X186635640Y-97530475D01*
X158601160Y-97530475D01*
X158499899Y-97021399D01*
X158301267Y-96541859D01*
X158012898Y-96110285D01*
X157645875Y-95743262D01*
X157214301Y-95454893D01*
X156734761Y-95256261D01*
X156225685Y-95155000D01*
X155706635Y-95155000D01*
X155197559Y-95256261D01*
X154718019Y-95454893D01*
X154286445Y-95743262D01*
X153919422Y-96110285D01*
X153631053Y-96541859D01*
X153432421Y-97021399D01*
X153331160Y-97530475D01*
X147980000Y-97530475D01*
X147980000Y-64256475D01*
X149511000Y-64256475D01*
X149511000Y-64775525D01*
X149612261Y-65284601D01*
X149810893Y-65764141D01*
X150099262Y-66195715D01*
X150466285Y-66562738D01*
X150897859Y-66851107D01*
X151261001Y-67001525D01*
X151261000Y-82292533D01*
X151256719Y-82336002D01*
X151261000Y-82379471D01*
X151261000Y-82379478D01*
X151273805Y-82509491D01*
X151324411Y-82676314D01*
X151406589Y-82830060D01*
X151517183Y-82964819D01*
X151550956Y-82992536D01*
X161346434Y-92788015D01*
X161374147Y-92821783D01*
X161407915Y-92849496D01*
X161407917Y-92849498D01*
X161479416Y-92908176D01*
X161508905Y-92932377D01*
X161662651Y-93014555D01*
X161829474Y-93065161D01*
X161959487Y-93077966D01*
X161959497Y-93077966D01*
X162002963Y-93082247D01*
X162046429Y-93077966D01*
X163532446Y-93077966D01*
X163580644Y-93110171D01*
X163769002Y-93188192D01*
X163968961Y-93227966D01*
X164172839Y-93227966D01*
X164372798Y-93188192D01*
X164561156Y-93110171D01*
X164730674Y-92996903D01*
X164874837Y-92852740D01*
X164988105Y-92683222D01*
X165066126Y-92494864D01*
X165105900Y-92294905D01*
X165105900Y-92091027D01*
X165066126Y-91891068D01*
X164988105Y-91702710D01*
X164874837Y-91533192D01*
X164730674Y-91389029D01*
X164561156Y-91275761D01*
X164372798Y-91197740D01*
X164172839Y-91157966D01*
X163968961Y-91157966D01*
X163769002Y-91197740D01*
X163580644Y-91275761D01*
X163532446Y-91307966D01*
X162369543Y-91307966D01*
X159176577Y-88115000D01*
X161793422Y-88115000D01*
X166125465Y-92447044D01*
X166136774Y-92503898D01*
X166214795Y-92692256D01*
X166328063Y-92861774D01*
X166472226Y-93005937D01*
X166641744Y-93119205D01*
X166830102Y-93197226D01*
X167030061Y-93237000D01*
X167233939Y-93237000D01*
X167433898Y-93197226D01*
X167622256Y-93119205D01*
X167791774Y-93005937D01*
X167935937Y-92861774D01*
X168049205Y-92692256D01*
X168127226Y-92503898D01*
X168167000Y-92303939D01*
X168167000Y-92100061D01*
X168127226Y-91900102D01*
X168049205Y-91711744D01*
X167935937Y-91542226D01*
X167791774Y-91398063D01*
X167622256Y-91284795D01*
X167433898Y-91206774D01*
X167377044Y-91195465D01*
X163951648Y-87770070D01*
X163981461Y-87776000D01*
X164185339Y-87776000D01*
X164385298Y-87736226D01*
X164573656Y-87658205D01*
X164743174Y-87544937D01*
X164887337Y-87400774D01*
X165000605Y-87231256D01*
X165078626Y-87042898D01*
X165118400Y-86842939D01*
X165118400Y-86639061D01*
X165078626Y-86439102D01*
X165000605Y-86250744D01*
X164887337Y-86081226D01*
X164743174Y-85937063D01*
X164573656Y-85823795D01*
X164385298Y-85745774D01*
X164328444Y-85734465D01*
X163927600Y-85333622D01*
X163927600Y-79121439D01*
X168948340Y-79121439D01*
X168948340Y-79374561D01*
X168997721Y-79622821D01*
X169094587Y-79856676D01*
X169235215Y-80067140D01*
X169414200Y-80246125D01*
X169624664Y-80386753D01*
X169858519Y-80483619D01*
X170106779Y-80533000D01*
X170359901Y-80533000D01*
X170608161Y-80483619D01*
X170842016Y-80386753D01*
X171052480Y-80246125D01*
X171165078Y-80133527D01*
X172067418Y-80133527D01*
X172120806Y-80362201D01*
X172350714Y-80468095D01*
X172596864Y-80527102D01*
X172849795Y-80536952D01*
X173099789Y-80497270D01*
X173337236Y-80409578D01*
X173425874Y-80362201D01*
X173479262Y-80133527D01*
X172773340Y-79427605D01*
X172067418Y-80133527D01*
X171165078Y-80133527D01*
X171231465Y-80067140D01*
X171372093Y-79856676D01*
X171468959Y-79622821D01*
X171503880Y-79447256D01*
X171524070Y-79574449D01*
X171611762Y-79811896D01*
X171659139Y-79900534D01*
X171887813Y-79953922D01*
X172593735Y-79248000D01*
X172952945Y-79248000D01*
X173658867Y-79953922D01*
X173887541Y-79900534D01*
X173993435Y-79670626D01*
X174025268Y-79537833D01*
X174025268Y-79898000D01*
X174037528Y-80022482D01*
X174073838Y-80142180D01*
X174132803Y-80252494D01*
X174212155Y-80349185D01*
X174308846Y-80428537D01*
X174419160Y-80487502D01*
X174538858Y-80523812D01*
X174663340Y-80536072D01*
X175963340Y-80536072D01*
X176087822Y-80523812D01*
X176207520Y-80487502D01*
X176317834Y-80428537D01*
X176414525Y-80349185D01*
X176493877Y-80252494D01*
X176552842Y-80142180D01*
X176589152Y-80022482D01*
X176601412Y-79898000D01*
X176601412Y-78598000D01*
X176589152Y-78473518D01*
X176552842Y-78353820D01*
X176493877Y-78243506D01*
X176414525Y-78146815D01*
X176317834Y-78067463D01*
X176207520Y-78008498D01*
X176087822Y-77972188D01*
X175963340Y-77959928D01*
X174663340Y-77959928D01*
X174538858Y-77972188D01*
X174419160Y-78008498D01*
X174308846Y-78067463D01*
X174212155Y-78146815D01*
X174132803Y-78243506D01*
X174073838Y-78353820D01*
X174037528Y-78473518D01*
X174025268Y-78598000D01*
X174025268Y-78938296D01*
X174022610Y-78921551D01*
X173934918Y-78684104D01*
X173887541Y-78595466D01*
X173658867Y-78542078D01*
X172952945Y-79248000D01*
X172593735Y-79248000D01*
X171887813Y-78542078D01*
X171659139Y-78595466D01*
X171553245Y-78825374D01*
X171501984Y-79039211D01*
X171468959Y-78873179D01*
X171372093Y-78639324D01*
X171231465Y-78428860D01*
X171165078Y-78362473D01*
X172067418Y-78362473D01*
X172773340Y-79068395D01*
X173479262Y-78362473D01*
X173425874Y-78133799D01*
X173195966Y-78027905D01*
X172949816Y-77968898D01*
X172696885Y-77959048D01*
X172446891Y-77998730D01*
X172209444Y-78086422D01*
X172120806Y-78133799D01*
X172067418Y-78362473D01*
X171165078Y-78362473D01*
X171052480Y-78249875D01*
X170842016Y-78109247D01*
X170608161Y-78012381D01*
X170359901Y-77963000D01*
X170106779Y-77963000D01*
X169858519Y-78012381D01*
X169624664Y-78109247D01*
X169414200Y-78249875D01*
X169235215Y-78428860D01*
X169094587Y-78639324D01*
X168997721Y-78873179D01*
X168948340Y-79121439D01*
X163927600Y-79121439D01*
X163927600Y-57866193D01*
X164111945Y-57714905D01*
X164275543Y-57515560D01*
X166314808Y-57515560D01*
X166327068Y-57640042D01*
X166363378Y-57759740D01*
X166422343Y-57870054D01*
X166501695Y-57966745D01*
X166598386Y-58046097D01*
X166708700Y-58105062D01*
X166828398Y-58141372D01*
X166952880Y-58153632D01*
X167537130Y-58150560D01*
X167695880Y-57991810D01*
X167695880Y-56547560D01*
X166476630Y-56547560D01*
X166317880Y-56706310D01*
X166314808Y-57515560D01*
X164275543Y-57515560D01*
X164300017Y-57485739D01*
X164439766Y-57224284D01*
X164525824Y-56940591D01*
X164547600Y-56719495D01*
X164547600Y-56121624D01*
X164525824Y-55900528D01*
X164439766Y-55616835D01*
X164300017Y-55355381D01*
X164275544Y-55325560D01*
X166314808Y-55325560D01*
X166317880Y-56134810D01*
X166476630Y-56293560D01*
X167695880Y-56293560D01*
X167695880Y-54849310D01*
X167949880Y-54849310D01*
X167949880Y-56293560D01*
X167969880Y-56293560D01*
X167969880Y-56547560D01*
X167949880Y-56547560D01*
X167949880Y-57991810D01*
X168108630Y-58150560D01*
X168692880Y-58153632D01*
X168817362Y-58141372D01*
X168937060Y-58105062D01*
X168983217Y-58080390D01*
X168983218Y-67573475D01*
X168978936Y-67616954D01*
X168996022Y-67790444D01*
X169046629Y-67957267D01*
X169128807Y-68111013D01*
X169211685Y-68212000D01*
X169211688Y-68212003D01*
X169239401Y-68245771D01*
X169273169Y-68273484D01*
X176628279Y-75628595D01*
X176628280Y-87105522D01*
X176623998Y-87149001D01*
X176641084Y-87322491D01*
X176691691Y-87489314D01*
X176773869Y-87643060D01*
X176856747Y-87744047D01*
X176856750Y-87744050D01*
X176884463Y-87777818D01*
X176918231Y-87805531D01*
X177298745Y-88186045D01*
X177326462Y-88219818D01*
X177461220Y-88330412D01*
X177614966Y-88412590D01*
X177781789Y-88463196D01*
X177911802Y-88476001D01*
X177911812Y-88476001D01*
X177955278Y-88480282D01*
X177998744Y-88476001D01*
X180569810Y-88476001D01*
X180613279Y-88480282D01*
X180656748Y-88476001D01*
X180656756Y-88476001D01*
X180786769Y-88463196D01*
X180953592Y-88412590D01*
X181107338Y-88330412D01*
X181242096Y-88219818D01*
X181269813Y-88186045D01*
X181708324Y-87747535D01*
X181765178Y-87736226D01*
X181953536Y-87658205D01*
X182123054Y-87544937D01*
X182267217Y-87400774D01*
X182380485Y-87231256D01*
X182458506Y-87042898D01*
X182498280Y-86842939D01*
X182498280Y-86639061D01*
X182458506Y-86439102D01*
X182380485Y-86250744D01*
X182267217Y-86081226D01*
X182123054Y-85937063D01*
X181953536Y-85823795D01*
X181765178Y-85745774D01*
X181565219Y-85706000D01*
X181361341Y-85706000D01*
X181161382Y-85745774D01*
X180973024Y-85823795D01*
X180803506Y-85937063D01*
X180659343Y-86081226D01*
X180546075Y-86250744D01*
X180468054Y-86439102D01*
X180456745Y-86495956D01*
X180246701Y-86706001D01*
X179398280Y-86706001D01*
X179398280Y-86639061D01*
X179358506Y-86439102D01*
X179280485Y-86250744D01*
X179248280Y-86202546D01*
X179248280Y-78892061D01*
X190227000Y-78892061D01*
X190227000Y-79095939D01*
X190266774Y-79295898D01*
X190344795Y-79484256D01*
X190458063Y-79653774D01*
X190602226Y-79797937D01*
X190771744Y-79911205D01*
X190960102Y-79989226D01*
X191160061Y-80029000D01*
X191363939Y-80029000D01*
X191563898Y-79989226D01*
X191752256Y-79911205D01*
X191921774Y-79797937D01*
X192065937Y-79653774D01*
X192179205Y-79484256D01*
X192257226Y-79295898D01*
X192268535Y-79239043D01*
X192808050Y-78699529D01*
X192841817Y-78671817D01*
X192952411Y-78537059D01*
X193034589Y-78383313D01*
X193085195Y-78216490D01*
X193098000Y-78086477D01*
X193098000Y-78086467D01*
X193102281Y-78043001D01*
X193098000Y-77999535D01*
X193098000Y-70192454D01*
X193130205Y-70144256D01*
X193208226Y-69955898D01*
X193248000Y-69755939D01*
X193248000Y-69552061D01*
X193208226Y-69352102D01*
X193130205Y-69163744D01*
X193016937Y-68994226D01*
X192872774Y-68850063D01*
X192703256Y-68736795D01*
X192514898Y-68658774D01*
X192314939Y-68619000D01*
X192111061Y-68619000D01*
X191911102Y-68658774D01*
X191722744Y-68736795D01*
X191553226Y-68850063D01*
X191409063Y-68994226D01*
X191295795Y-69163744D01*
X191217774Y-69352102D01*
X191178000Y-69552061D01*
X191178000Y-69755939D01*
X191217774Y-69955898D01*
X191295795Y-70144256D01*
X191328001Y-70192456D01*
X191328000Y-77676421D01*
X191016957Y-77987465D01*
X190960102Y-77998774D01*
X190771744Y-78076795D01*
X190602226Y-78190063D01*
X190458063Y-78334226D01*
X190344795Y-78503744D01*
X190266774Y-78692102D01*
X190227000Y-78892061D01*
X179248280Y-78892061D01*
X179248280Y-75165523D01*
X179252561Y-75122054D01*
X179248280Y-75078585D01*
X179248280Y-75078577D01*
X179235475Y-74948564D01*
X179227326Y-74921702D01*
X179184869Y-74781740D01*
X179102691Y-74627995D01*
X179019812Y-74527007D01*
X179019810Y-74527005D01*
X178992097Y-74493237D01*
X178958331Y-74465526D01*
X173294805Y-68802001D01*
X190341248Y-68802001D01*
X190396999Y-68807492D01*
X190452750Y-68802001D01*
X190452751Y-68802001D01*
X190619498Y-68785578D01*
X190833446Y-68720677D01*
X191030622Y-68615285D01*
X191203448Y-68473450D01*
X191238995Y-68430136D01*
X192666257Y-67002874D01*
X192779399Y-67049739D01*
X193288475Y-67151000D01*
X193807525Y-67151000D01*
X194316601Y-67049739D01*
X194796141Y-66851107D01*
X195227715Y-66562738D01*
X195594738Y-66195715D01*
X195883107Y-65764141D01*
X196081739Y-65284601D01*
X196183000Y-64775525D01*
X196183000Y-64256475D01*
X196081739Y-63747399D01*
X195883107Y-63267859D01*
X195594738Y-62836285D01*
X195227715Y-62469262D01*
X194796141Y-62180893D01*
X194316601Y-61982261D01*
X193807525Y-61881000D01*
X193288475Y-61881000D01*
X192779399Y-61982261D01*
X192299859Y-62180893D01*
X191868285Y-62469262D01*
X191501262Y-62836285D01*
X191212893Y-63267859D01*
X191014261Y-63747399D01*
X190913000Y-64256475D01*
X190913000Y-64775525D01*
X191014261Y-65284601D01*
X191061126Y-65397743D01*
X189926868Y-66532001D01*
X175206130Y-66532001D01*
X175244528Y-66378816D01*
X175258445Y-66096488D01*
X175217015Y-65816870D01*
X175121831Y-65550708D01*
X175054899Y-65425486D01*
X174810930Y-65353903D01*
X173997833Y-66167000D01*
X174011976Y-66181143D01*
X173832371Y-66360748D01*
X173818228Y-66346605D01*
X173804086Y-66360748D01*
X173624481Y-66181143D01*
X173638623Y-66167000D01*
X173624481Y-66152858D01*
X173804086Y-65973253D01*
X173818228Y-65987395D01*
X174631325Y-65174298D01*
X174559742Y-64930329D01*
X174304232Y-64809429D01*
X174030044Y-64740700D01*
X173747716Y-64726783D01*
X173468098Y-64768213D01*
X173201936Y-64863397D01*
X173079919Y-64928616D01*
X173069413Y-64915815D01*
X172972722Y-64836463D01*
X172862408Y-64777498D01*
X172742710Y-64741188D01*
X172618228Y-64728928D01*
X171453227Y-64728928D01*
X171453227Y-63902071D01*
X177264130Y-58091169D01*
X177388129Y-58128784D01*
X177683160Y-58157842D01*
X177978192Y-58128784D01*
X178261885Y-58042726D01*
X178523339Y-57902977D01*
X178752505Y-57714905D01*
X178916103Y-57515560D01*
X180955368Y-57515560D01*
X180967628Y-57640042D01*
X181003938Y-57759740D01*
X181062903Y-57870054D01*
X181142255Y-57966745D01*
X181238946Y-58046097D01*
X181349260Y-58105062D01*
X181468958Y-58141372D01*
X181593440Y-58153632D01*
X182177690Y-58150560D01*
X182336440Y-57991810D01*
X182336440Y-56547560D01*
X181117190Y-56547560D01*
X180958440Y-56706310D01*
X180955368Y-57515560D01*
X178916103Y-57515560D01*
X178940577Y-57485739D01*
X179080326Y-57224284D01*
X179166384Y-56940591D01*
X179188160Y-56719495D01*
X179188160Y-56121624D01*
X179166384Y-55900528D01*
X179080326Y-55616835D01*
X178940577Y-55355381D01*
X178916104Y-55325560D01*
X180955368Y-55325560D01*
X180958440Y-56134810D01*
X181117190Y-56293560D01*
X182336440Y-56293560D01*
X182336440Y-54849310D01*
X182590440Y-54849310D01*
X182590440Y-56293560D01*
X182610440Y-56293560D01*
X182610440Y-56547560D01*
X182590440Y-56547560D01*
X182590440Y-57991810D01*
X182749190Y-58150560D01*
X183333440Y-58153632D01*
X183457922Y-58141372D01*
X183577620Y-58105062D01*
X183687934Y-58046097D01*
X183784625Y-57966745D01*
X183863977Y-57870054D01*
X183922942Y-57759740D01*
X183936055Y-57716513D01*
X184163262Y-57902977D01*
X184424716Y-58042726D01*
X184708409Y-58128784D01*
X185003440Y-58157842D01*
X185298472Y-58128784D01*
X185582165Y-58042726D01*
X185843619Y-57902977D01*
X186072785Y-57714905D01*
X186260857Y-57485739D01*
X186400606Y-57224284D01*
X186486664Y-56940591D01*
X186508440Y-56719495D01*
X186508440Y-56121624D01*
X186486664Y-55900528D01*
X186400606Y-55616835D01*
X186260857Y-55355381D01*
X186072785Y-55126215D01*
X185843618Y-54938143D01*
X185582164Y-54798394D01*
X185298471Y-54712336D01*
X185003440Y-54683278D01*
X184708408Y-54712336D01*
X184424715Y-54798394D01*
X184163261Y-54938143D01*
X183936055Y-55124607D01*
X183922942Y-55081380D01*
X183863977Y-54971066D01*
X183784625Y-54874375D01*
X183687934Y-54795023D01*
X183577620Y-54736058D01*
X183457922Y-54699748D01*
X183333440Y-54687488D01*
X182749190Y-54690560D01*
X182590440Y-54849310D01*
X182336440Y-54849310D01*
X182177690Y-54690560D01*
X181593440Y-54687488D01*
X181468958Y-54699748D01*
X181349260Y-54736058D01*
X181238946Y-54795023D01*
X181142255Y-54874375D01*
X181062903Y-54971066D01*
X181003938Y-55081380D01*
X180967628Y-55201078D01*
X180955368Y-55325560D01*
X178916104Y-55325560D01*
X178752505Y-55126215D01*
X178523338Y-54938143D01*
X178261884Y-54798394D01*
X177978191Y-54712336D01*
X177683160Y-54683278D01*
X177388128Y-54712336D01*
X177104435Y-54798394D01*
X176842981Y-54938143D01*
X176615775Y-55124607D01*
X176602662Y-55081380D01*
X176543697Y-54971066D01*
X176464345Y-54874375D01*
X176367654Y-54795023D01*
X176257340Y-54736058D01*
X176137642Y-54699748D01*
X176013160Y-54687488D01*
X175428910Y-54690560D01*
X175270160Y-54849310D01*
X175270160Y-56293560D01*
X175290160Y-56293560D01*
X175290160Y-56547560D01*
X175270160Y-56547560D01*
X175270160Y-56567560D01*
X175016160Y-56567560D01*
X175016160Y-56547560D01*
X173796910Y-56547560D01*
X173638160Y-56706310D01*
X173635088Y-57515560D01*
X173647348Y-57640042D01*
X173683658Y-57759740D01*
X173742623Y-57870054D01*
X173821975Y-57966745D01*
X173918666Y-58046097D01*
X174028980Y-58105062D01*
X174148678Y-58141372D01*
X174273160Y-58153632D01*
X174700758Y-58151384D01*
X170753217Y-62098925D01*
X170753217Y-58099873D01*
X170941605Y-58042726D01*
X171203059Y-57902977D01*
X171432225Y-57714905D01*
X171620297Y-57485739D01*
X171760046Y-57224284D01*
X171846104Y-56940591D01*
X171867880Y-56719495D01*
X171867880Y-56121624D01*
X171846104Y-55900528D01*
X171760046Y-55616835D01*
X171620297Y-55355381D01*
X171595824Y-55325560D01*
X173635088Y-55325560D01*
X173638160Y-56134810D01*
X173796910Y-56293560D01*
X175016160Y-56293560D01*
X175016160Y-54849310D01*
X174857410Y-54690560D01*
X174273160Y-54687488D01*
X174148678Y-54699748D01*
X174028980Y-54736058D01*
X173918666Y-54795023D01*
X173821975Y-54874375D01*
X173742623Y-54971066D01*
X173683658Y-55081380D01*
X173647348Y-55201078D01*
X173635088Y-55325560D01*
X171595824Y-55325560D01*
X171432225Y-55126215D01*
X171203058Y-54938143D01*
X170941604Y-54798394D01*
X170657911Y-54712336D01*
X170362880Y-54683278D01*
X170067848Y-54712336D01*
X169784155Y-54798394D01*
X169522701Y-54938143D01*
X169295495Y-55124607D01*
X169282382Y-55081380D01*
X169223417Y-54971066D01*
X169144065Y-54874375D01*
X169047374Y-54795023D01*
X168937060Y-54736058D01*
X168817362Y-54699748D01*
X168692880Y-54687488D01*
X168108630Y-54690560D01*
X167949880Y-54849310D01*
X167695880Y-54849310D01*
X167537130Y-54690560D01*
X166952880Y-54687488D01*
X166828398Y-54699748D01*
X166708700Y-54736058D01*
X166598386Y-54795023D01*
X166501695Y-54874375D01*
X166422343Y-54971066D01*
X166363378Y-55081380D01*
X166327068Y-55201078D01*
X166314808Y-55325560D01*
X164275544Y-55325560D01*
X164111945Y-55126215D01*
X163882778Y-54938143D01*
X163621324Y-54798394D01*
X163337631Y-54712336D01*
X163042600Y-54683278D01*
X162747568Y-54712336D01*
X162463875Y-54798394D01*
X162202421Y-54938143D01*
X161975215Y-55124607D01*
X161962102Y-55081380D01*
X161903137Y-54971066D01*
X161823785Y-54874375D01*
X161727094Y-54795023D01*
X161616780Y-54736058D01*
X161497082Y-54699748D01*
X161372600Y-54687488D01*
X160788350Y-54690560D01*
X160629600Y-54849310D01*
X160629600Y-56293560D01*
X160649600Y-56293560D01*
X160649600Y-56547560D01*
X160629600Y-56547560D01*
X160629600Y-57991810D01*
X160788350Y-58150560D01*
X161372600Y-58153632D01*
X161497082Y-58141372D01*
X161616780Y-58105062D01*
X161727094Y-58046097D01*
X161823785Y-57966745D01*
X161903137Y-57870054D01*
X161962102Y-57759740D01*
X161975215Y-57716513D01*
X162157600Y-57866193D01*
X162157601Y-85656721D01*
X162153319Y-85700200D01*
X162170405Y-85873690D01*
X162221012Y-86040513D01*
X162303190Y-86194259D01*
X162386068Y-86295246D01*
X162386071Y-86295249D01*
X162413784Y-86329017D01*
X162447551Y-86356729D01*
X162498763Y-86407941D01*
X162333490Y-86357805D01*
X162203477Y-86345000D01*
X162203469Y-86345000D01*
X162160000Y-86340719D01*
X162116531Y-86345000D01*
X158836454Y-86345000D01*
X158788256Y-86312795D01*
X158599898Y-86234774D01*
X158399939Y-86195000D01*
X158196061Y-86195000D01*
X157996102Y-86234774D01*
X157807744Y-86312795D01*
X157638226Y-86426063D01*
X157562933Y-86501356D01*
X153031000Y-81969424D01*
X153031000Y-78638061D01*
X156191000Y-78638061D01*
X156191000Y-78841939D01*
X156230774Y-79041898D01*
X156308795Y-79230256D01*
X156422063Y-79399774D01*
X156566226Y-79543937D01*
X156735744Y-79657205D01*
X156924102Y-79735226D01*
X157124061Y-79775000D01*
X157327939Y-79775000D01*
X157527898Y-79735226D01*
X157716256Y-79657205D01*
X157885774Y-79543937D01*
X158029937Y-79399774D01*
X158143205Y-79230256D01*
X158221226Y-79041898D01*
X158232535Y-78985043D01*
X158893050Y-78324529D01*
X158926817Y-78296817D01*
X158965450Y-78249744D01*
X159037410Y-78162060D01*
X159037411Y-78162059D01*
X159119589Y-78008313D01*
X159170195Y-77841490D01*
X159183000Y-77711477D01*
X159183000Y-77711469D01*
X159187281Y-77668000D01*
X159183000Y-77624531D01*
X159183000Y-70192454D01*
X159215205Y-70144256D01*
X159293226Y-69955898D01*
X159333000Y-69755939D01*
X159333000Y-69552061D01*
X159293226Y-69352102D01*
X159215205Y-69163744D01*
X159101937Y-68994226D01*
X158957774Y-68850063D01*
X158788256Y-68736795D01*
X158599898Y-68658774D01*
X158399939Y-68619000D01*
X158196061Y-68619000D01*
X157996102Y-68658774D01*
X157807744Y-68736795D01*
X157638226Y-68850063D01*
X157494063Y-68994226D01*
X157380795Y-69163744D01*
X157302774Y-69352102D01*
X157263000Y-69552061D01*
X157263000Y-69755939D01*
X157302774Y-69955898D01*
X157380795Y-70144256D01*
X157413001Y-70192456D01*
X157413000Y-77301421D01*
X156980957Y-77733465D01*
X156924102Y-77744774D01*
X156735744Y-77822795D01*
X156566226Y-77936063D01*
X156422063Y-78080226D01*
X156308795Y-78249744D01*
X156230774Y-78438102D01*
X156191000Y-78638061D01*
X153031000Y-78638061D01*
X153031000Y-67001525D01*
X153394141Y-66851107D01*
X153825715Y-66562738D01*
X154192738Y-66195715D01*
X154481107Y-65764141D01*
X154679739Y-65284601D01*
X154781000Y-64775525D01*
X154781000Y-64256475D01*
X154679739Y-63747399D01*
X154481107Y-63267859D01*
X154192738Y-62836285D01*
X153825715Y-62469262D01*
X153394141Y-62180893D01*
X152914601Y-61982261D01*
X152405525Y-61881000D01*
X151886475Y-61881000D01*
X151377399Y-61982261D01*
X150897859Y-62180893D01*
X150466285Y-62469262D01*
X150099262Y-62836285D01*
X149810893Y-63267859D01*
X149612261Y-63747399D01*
X149511000Y-64256475D01*
X147980000Y-64256475D01*
X147980000Y-57515560D01*
X158994528Y-57515560D01*
X159006788Y-57640042D01*
X159043098Y-57759740D01*
X159102063Y-57870054D01*
X159181415Y-57966745D01*
X159278106Y-58046097D01*
X159388420Y-58105062D01*
X159508118Y-58141372D01*
X159632600Y-58153632D01*
X160216850Y-58150560D01*
X160375600Y-57991810D01*
X160375600Y-56547560D01*
X159156350Y-56547560D01*
X158997600Y-56706310D01*
X158994528Y-57515560D01*
X147980000Y-57515560D01*
X147980000Y-54389872D01*
X148895000Y-54389872D01*
X148895000Y-54830128D01*
X148980890Y-55261925D01*
X149149369Y-55668669D01*
X149393962Y-56034729D01*
X149705271Y-56346038D01*
X150071331Y-56590631D01*
X150478075Y-56759110D01*
X150909872Y-56845000D01*
X151350128Y-56845000D01*
X151781925Y-56759110D01*
X152188669Y-56590631D01*
X152554729Y-56346038D01*
X152866038Y-56034729D01*
X153110631Y-55668669D01*
X153252751Y-55325560D01*
X158994528Y-55325560D01*
X158997600Y-56134810D01*
X159156350Y-56293560D01*
X160375600Y-56293560D01*
X160375600Y-54849310D01*
X160216850Y-54690560D01*
X159632600Y-54687488D01*
X159508118Y-54699748D01*
X159388420Y-54736058D01*
X159278106Y-54795023D01*
X159181415Y-54874375D01*
X159102063Y-54971066D01*
X159043098Y-55081380D01*
X159006788Y-55201078D01*
X158994528Y-55325560D01*
X153252751Y-55325560D01*
X153279110Y-55261925D01*
X153365000Y-54830128D01*
X153365000Y-54389872D01*
X192075000Y-54389872D01*
X192075000Y-54830128D01*
X192160890Y-55261925D01*
X192329369Y-55668669D01*
X192573962Y-56034729D01*
X192885271Y-56346038D01*
X193251331Y-56590631D01*
X193658075Y-56759110D01*
X194089872Y-56845000D01*
X194530128Y-56845000D01*
X194961925Y-56759110D01*
X195368669Y-56590631D01*
X195734729Y-56346038D01*
X196046038Y-56034729D01*
X196290631Y-55668669D01*
X196459110Y-55261925D01*
X196545000Y-54830128D01*
X196545000Y-54389872D01*
X196459110Y-53958075D01*
X196290631Y-53551331D01*
X196046038Y-53185271D01*
X195734729Y-52873962D01*
X195368669Y-52629369D01*
X194961925Y-52460890D01*
X194530128Y-52375000D01*
X194089872Y-52375000D01*
X193658075Y-52460890D01*
X193251331Y-52629369D01*
X192885271Y-52873962D01*
X192573962Y-53185271D01*
X192329369Y-53551331D01*
X192160890Y-53958075D01*
X192075000Y-54389872D01*
X153365000Y-54389872D01*
X153279110Y-53958075D01*
X153110631Y-53551331D01*
X152866038Y-53185271D01*
X152554729Y-52873962D01*
X152188669Y-52629369D01*
X151781925Y-52460890D01*
X151350128Y-52375000D01*
X150909872Y-52375000D01*
X150478075Y-52460890D01*
X150071331Y-52629369D01*
X149705271Y-52873962D01*
X149393962Y-53185271D01*
X149149369Y-53551331D01*
X148980890Y-53958075D01*
X148895000Y-54389872D01*
X147980000Y-54389872D01*
X147980000Y-52102279D01*
X147994722Y-51952131D01*
X148028953Y-51838754D01*
X148084555Y-51734181D01*
X148159407Y-51642404D01*
X148250664Y-51566909D01*
X148354844Y-51510581D01*
X148467976Y-51475560D01*
X148616022Y-51460000D01*
X196817721Y-51460000D01*
X196967869Y-51474722D01*
G37*
%TD.AperFunction*%
%TD*%
M02*
